<svg width="131" height="34" viewBox="0 0 131 34" fill="none" xmlns="http://www.w3.org/2000/svg">
<path d="M93.9837 14.9615V17.9398H92.1168V19.893H93.9837V26.5294C93.9837 28.7955 95.0088 29.702 97.5879 29.702C98.0411 29.702 98.4727 29.648 98.8504 29.5833V27.6517C98.5267 27.6841 98.3217 27.7056 97.9656 27.7056C96.8109 27.7056 96.3037 27.1661 96.3037 25.9359V19.893H98.8504V17.9398H96.3037V14.9615H93.9837Z" fill="white"/>
<path d="M105.42 29.8639C108.852 29.8639 110.956 27.5654 110.956 23.7561C110.956 19.9685 108.841 17.6592 105.42 17.6592C101.989 17.6592 99.8738 19.9685 99.8738 23.7561C99.8738 27.5654 101.978 29.8639 105.42 29.8639ZM105.42 27.8028C103.403 27.8028 102.269 26.3244 102.269 23.7561C102.269 21.2095 103.403 19.7203 105.42 19.7203C107.428 19.7203 108.571 21.2095 108.571 23.7561C108.571 26.3136 107.428 27.8028 105.42 27.8028Z" fill="white"/>
<path d="M112.757 29.6372H115.077V22.6986C115.077 21.0476 116.318 19.9361 118.077 19.9361C118.487 19.9361 119.177 20.0117 119.371 20.0764V17.7887C119.123 17.724 118.681 17.6916 118.336 17.6916C116.803 17.6916 115.498 18.5333 115.163 19.6879H114.99V17.8858H112.757V29.6372Z" fill="white"/>
<path d="M125.132 19.634C126.848 19.634 127.97 20.8318 128.024 22.677H122.089C122.219 20.8426 123.416 19.634 125.132 19.634ZM128.013 26.4647C127.582 27.3819 126.621 27.8891 125.218 27.8891C123.362 27.8891 122.165 26.5834 122.089 24.5223V24.3928H130.387V23.5835C130.387 19.893 128.413 17.6592 125.143 17.6592C121.83 17.6592 119.726 20.044 119.726 23.7993C119.726 27.5546 121.787 29.8639 125.154 29.8639C127.841 29.8639 129.718 28.5689 130.247 26.4647H128.013Z" fill="white"/>
<path d="M78.769 25.2976C78.948 28.1832 81.3527 30.0287 84.9317 30.0287C88.7568 30.0287 91.1503 28.0938 91.1503 25.0068C91.1503 22.5798 89.7858 21.2376 86.4752 20.4659L84.6968 20.0297C82.5941 19.5376 81.7441 18.8777 81.7441 17.7257C81.7441 16.2717 83.0639 15.321 85.0436 15.321C86.9226 15.321 88.22 16.2493 88.4549 17.7369H90.8931C90.7477 15.019 88.3542 13.1064 85.0771 13.1064C81.554 13.1064 79.2052 15.019 79.2052 17.8934C79.2052 20.2646 80.5362 21.6738 83.4554 22.3561L85.5357 22.8594C87.6719 23.3627 88.6114 24.1009 88.6114 25.3312C88.6114 26.7628 87.1351 27.803 85.1219 27.803C82.9632 27.803 81.4645 26.8299 81.252 25.2976H78.769Z" fill="white"/>
<path d="M54.7355 17.6916C53.1384 17.6916 51.7572 18.4901 51.045 19.8282H50.8723V17.8858H48.6386V33.5436H50.9586V27.8567H51.1421C51.7572 29.0977 53.0845 29.8315 54.7571 29.8315C57.7246 29.8315 59.613 27.4898 59.613 23.7561C59.613 20.0224 57.7246 17.6916 54.7355 17.6916ZM54.0772 27.7488C52.1349 27.7488 50.9155 26.2165 50.9155 23.7669C50.9155 21.3066 52.1349 19.7743 54.088 19.7743C56.052 19.7743 57.2282 21.2742 57.2282 23.7561C57.2282 26.2489 56.052 27.7488 54.0772 27.7488Z" fill="white"/>
<path d="M67.7313 17.6916C66.1343 17.6916 64.753 18.4901 64.0408 19.8282H63.8681V17.8858H61.6344V33.5436H63.9545V27.8567H64.1379C64.753 29.0977 66.0803 29.8315 67.7529 29.8315C70.7204 29.8315 72.6089 27.4898 72.6089 23.7561C72.6089 20.0224 70.7204 17.6916 67.7313 17.6916ZM67.0731 27.7488C65.1307 27.7488 63.9113 26.2165 63.9113 23.7669C63.9113 21.3066 65.1307 19.7743 67.0839 19.7743C69.0478 19.7743 70.224 21.2742 70.224 23.7561C70.224 26.2489 69.0478 27.7488 67.0731 27.7488Z" fill="white"/>
<path d="M44.476 29.6372H47.1379L41.3107 13.4979H38.6152L32.7881 29.6372H35.3605L36.8481 25.3535H42.9996L44.476 29.6372ZM39.8344 16.4283H40.0245L42.3621 23.2509H37.4856L39.8344 16.4283Z" fill="white"/>
<path d="M34.3467 1.32449V9.1102H37.1577C39.4778 9.1102 40.8213 7.68039 40.8213 5.19307C40.8213 2.74351 39.467 1.32449 37.1577 1.32449H34.3467ZM35.5553 2.42517H37.0229C38.6361 2.42517 39.5911 3.45032 39.5911 5.20925C39.5911 6.99517 38.6523 8.00952 37.0229 8.00952H35.5553V2.42517Z" fill="white"/>
<path d="M44.9359 9.22351C46.6517 9.22351 47.7038 8.07427 47.7038 6.16965C47.7038 4.27583 46.6463 3.12119 44.9359 3.12119C43.2201 3.12119 42.1626 4.27583 42.1626 6.16965C42.1626 8.07427 43.2147 9.22351 44.9359 9.22351ZM44.9359 8.19297C43.9269 8.19297 43.3604 7.45378 43.3604 6.16965C43.3604 4.89631 43.9269 4.15173 44.9359 4.15173C45.9395 4.15173 46.5114 4.89631 46.5114 6.16965C46.5114 7.44839 45.9395 8.19297 44.9359 8.19297Z" fill="white"/>
<path d="M56.6636 3.2345H55.5035L54.4568 7.71816H54.3651L53.1565 3.2345H52.045L50.8364 7.71816H50.7501L49.698 3.2345H48.5218L50.1404 9.1102H51.3328L52.5414 4.78301H52.6331L53.8471 9.1102H55.0503L56.6636 3.2345Z" fill="white"/>
<path d="M57.9995 9.1102H59.1595V5.67327C59.1595 4.75603 59.7045 4.18411 60.5624 4.18411C61.4203 4.18411 61.8303 4.65352 61.8303 5.59773V9.1102H62.9904V5.30637C62.9904 3.90894 62.2674 3.12119 60.9562 3.12119C60.0714 3.12119 59.4887 3.51506 59.2027 4.16792H59.1164V3.2345H57.9995V9.1102Z" fill="white"/>
<path d="M64.8173 9.1102H65.9773V0.941406H64.8173V9.1102Z" fill="white"/>
<path d="M70.3401 9.22351C72.0559 9.22351 73.108 8.07427 73.108 6.16965C73.108 4.27583 72.0505 3.12119 70.3401 3.12119C68.6243 3.12119 67.5668 4.27583 67.5668 6.16965C67.5668 8.07427 68.6189 9.22351 70.3401 9.22351ZM70.3401 8.19297C69.3312 8.19297 68.7646 7.45378 68.7646 6.16965C68.7646 4.89631 69.3312 4.15173 70.3401 4.15173C71.3437 4.15173 71.9156 4.89631 71.9156 6.16965C71.9156 7.44839 71.3437 8.19297 70.3401 8.19297Z" fill="white"/>
<path d="M76.5644 8.23074C75.9331 8.23074 75.4745 7.92319 75.4745 7.39443C75.4745 6.87646 75.8414 6.60129 76.6507 6.54734L78.0859 6.45561V6.94661C78.0859 7.675 77.4384 8.23074 76.5644 8.23074ZM76.2676 9.20732C77.0392 9.20732 77.6812 8.8728 78.0319 8.28469H78.1237V9.1102H79.2405V5.09595C79.2405 3.85498 78.4096 3.12119 76.9367 3.12119C75.604 3.12119 74.6544 3.76865 74.5357 4.77761H75.6579C75.7874 4.36216 76.2352 4.12476 76.8827 4.12476C77.6758 4.12476 78.0859 4.47546 78.0859 5.09595V5.60312L76.4942 5.69485C75.0968 5.78118 74.309 6.39087 74.309 7.44839C74.309 8.52209 75.1346 9.20732 76.2676 9.20732Z" fill="white"/>
<path d="M83.1771 9.20732C83.9864 9.20732 84.6717 8.82424 85.0224 8.18218H85.1141V9.1102H86.2256V0.941406H85.0655V4.16792H84.9792C84.6609 3.52046 83.981 3.13738 83.1771 3.13738C81.6933 3.13738 80.7383 4.3136 80.7383 6.16965C80.7383 8.0311 81.6825 9.20732 83.1771 9.20732ZM83.5062 4.17871C84.4774 4.17871 85.0871 4.95027 85.0871 6.17505C85.0871 7.40522 84.4828 8.16599 83.5062 8.16599C82.5242 8.16599 81.9361 7.41601 81.9361 6.16965C81.9361 4.93408 82.5296 4.17871 83.5062 4.17871Z" fill="white"/>
<path d="M93.748 9.22351C95.4638 9.22351 96.5159 8.07427 96.5159 6.16965C96.5159 4.27583 95.4584 3.12119 93.748 3.12119C92.0322 3.12119 90.9747 4.27583 90.9747 6.16965C90.9747 8.07427 92.0268 9.22351 93.748 9.22351ZM93.748 8.19297C92.739 8.19297 92.1725 7.45378 92.1725 6.16965C92.1725 4.89631 92.739 4.15173 93.748 4.15173C94.7515 4.15173 95.3235 4.89631 95.3235 6.16965C95.3235 7.44839 94.7515 8.19297 93.748 8.19297Z" fill="white"/>
<path d="M98.0514 9.1102H99.2115V5.67327C99.2115 4.75603 99.7564 4.18411 100.614 4.18411C101.472 4.18411 101.882 4.65352 101.882 5.59773V9.1102H103.042V5.30637C103.042 3.90894 102.319 3.12119 101.008 3.12119C100.123 3.12119 99.5406 3.51506 99.2546 4.16792H99.1683V3.2345H98.0514V9.1102Z" fill="white"/>
<path d="M108.385 1.77231V3.26147H107.451V4.23806H108.385V7.5563C108.385 8.68935 108.897 9.14258 110.187 9.14258C110.414 9.14258 110.629 9.1156 110.818 9.08323V8.11743C110.656 8.13362 110.554 8.14441 110.376 8.14441C109.799 8.14441 109.545 7.87463 109.545 7.25954V4.23806H110.818V3.26147H109.545V1.77231H108.385Z" fill="white"/>
<path d="M112.375 9.1102H113.535V5.67866C113.535 4.7884 114.064 4.1895 115.014 4.1895C115.834 4.1895 116.271 4.66431 116.271 5.60312V9.1102H117.431V5.31716C117.431 3.91973 116.659 3.12659 115.408 3.12659C114.523 3.12659 113.902 3.52046 113.616 4.17871H113.525V0.941406H112.375V9.1102Z" fill="white"/>
<path d="M121.616 4.10857C122.474 4.10857 123.035 4.70747 123.062 5.6301H120.094C120.159 4.71287 120.758 4.10857 121.616 4.10857ZM123.056 7.52392C122.841 7.98254 122.36 8.23613 121.659 8.23613C120.731 8.23613 120.132 7.58328 120.094 6.55273V6.48799H124.243V6.08332C124.243 4.23806 123.256 3.12119 121.621 3.12119C119.965 3.12119 118.913 4.3136 118.913 6.19123C118.913 8.06887 119.943 9.22351 121.627 9.22351C122.97 9.22351 123.909 8.57605 124.173 7.52392H123.056Z" fill="white"/>
<path d="M20.1999 16.3914C20.228 14.2061 21.4016 12.1383 23.2634 10.9937C22.0889 9.31629 20.1216 8.25276 18.0749 8.18872C15.8919 7.95958 13.7756 9.495 12.6631 9.495C11.5292 9.495 9.81643 8.21147 7.97208 8.24942C5.56806 8.32709 3.3269 9.69388 2.15729 11.7956C-0.356911 16.1486 1.51846 22.546 3.92685 26.0646C5.13182 27.7875 6.54008 29.7121 8.38277 29.6438C10.1859 29.5691 10.8594 28.494 13.036 28.494C15.1924 28.494 15.8242 29.6438 17.7043 29.6004C19.6392 29.569 20.8583 27.8698 22.021 26.1306C22.8867 24.9029 23.5529 23.5461 23.9949 22.1103C21.721 21.1486 20.2025 18.8603 20.1999 16.3914Z" fill="white"/>
<path d="M16.6487 5.87472C17.7037 4.60825 18.2235 2.98042 18.0976 1.33691C16.4858 1.5062 14.997 2.27653 13.9277 3.49441C12.8822 4.68434 12.3381 6.28353 12.4409 7.86421C14.0533 7.88082 15.6384 7.13137 16.6487 5.87472Z" fill="white"/>
</svg>
