<svg width="152" height="37" viewBox="0 0 152 37" fill="none" xmlns="http://www.w3.org/2000/svg">
<path d="M76.5767 20.2763C73.5191 20.2763 71.027 22.602 71.027 25.8052C71.027 28.9889 73.5191 31.3341 76.5767 31.3341C79.6356 31.3341 82.1277 28.9889 82.1277 25.8052C82.1264 22.602 79.6343 20.2763 76.5767 20.2763ZM76.5767 29.1579C74.901 29.1579 73.4567 27.776 73.4567 25.8065C73.4567 23.8162 74.9023 22.4551 76.5767 22.4551C78.2524 22.4551 79.6967 23.8162 79.6967 25.8065C79.6967 27.7747 78.2524 29.1579 76.5767 29.1579ZM64.4685 20.2763C61.4109 20.2763 58.9188 22.602 58.9188 25.8052C58.9188 28.9889 61.4109 31.3341 64.4685 31.3341C67.5274 31.3341 70.0195 28.9889 70.0195 25.8052C70.0195 22.602 67.5274 20.2763 64.4685 20.2763ZM64.4685 29.1579C62.7928 29.1579 61.3485 27.776 61.3485 25.8065C61.3485 23.8162 62.7941 22.4551 64.4685 22.4551C66.1442 22.4551 67.5885 23.8162 67.5885 25.8065C67.5898 27.7747 66.1442 29.1579 64.4685 29.1579ZM50.0671 21.9741V24.3193H55.6805C55.5128 25.6388 55.0734 26.6021 54.4026 27.2716C53.5862 28.088 52.3083 28.9889 50.0671 28.9889C46.6117 28.9889 43.9103 26.203 43.9103 22.7476C43.9103 19.2922 46.6117 16.5063 50.0671 16.5063C51.9313 16.5063 53.2924 17.2395 54.2973 18.182L55.9522 16.5271C54.5482 15.1868 52.6853 14.1611 50.0671 14.1611C45.3338 14.1611 41.3545 18.0143 41.3545 22.7476C41.3545 27.4809 45.3338 31.3341 50.0671 31.3341C52.6216 31.3341 54.5495 30.4956 56.0562 28.9252C57.6058 27.3756 58.0881 25.1968 58.0881 23.4379C58.0881 22.8945 58.0465 22.3914 57.962 21.9728H50.0671V21.9741ZM108.967 23.7954C108.507 22.5604 107.103 20.2763 104.234 20.2763C101.386 20.2763 99.0186 22.5175 99.0186 25.8052C99.0186 28.9044 101.365 31.3341 104.506 31.3341C107.04 31.3341 108.506 29.7845 109.114 28.8836L107.229 27.6265C106.601 28.5482 105.742 29.1553 104.506 29.1553C103.271 29.1553 102.391 28.5898 101.825 27.4796L109.218 24.422L108.967 23.7954ZM101.427 25.6388C101.365 23.5016 103.082 22.4135 104.319 22.4135C105.282 22.4135 106.098 22.8958 106.371 23.5861L101.427 25.6388ZM95.4176 31H97.846V14.7487H95.4176V31ZM91.437 21.5126H91.3538C90.8091 20.8626 89.7613 20.2763 88.4431 20.2763C85.678 20.2763 83.1443 22.706 83.1443 25.8273C83.1443 28.9265 85.678 31.3354 88.4431 31.3354C89.7626 31.3354 90.8091 30.7491 91.3538 30.0796H91.437V30.8752C91.437 32.9903 90.306 34.1213 88.4847 34.1213C86.9975 34.1213 86.0758 33.054 85.6988 32.1531L83.5837 33.0332C84.1908 34.4983 85.8028 36.3001 88.4847 36.3001C91.333 36.3001 93.7419 34.6244 93.7419 30.5398V20.613H91.4383V21.5126H91.437ZM88.6524 29.1579C86.9767 29.1579 85.574 27.7539 85.574 25.8273C85.574 23.8786 86.9767 22.4551 88.6524 22.4551C90.306 22.4551 91.6047 23.8786 91.6047 25.8273C91.6047 27.7539 90.306 29.1579 88.6524 29.1579ZM120.348 14.7487H114.535V31H116.96V24.8432H120.346C123.035 24.8432 125.679 22.8971 125.679 19.7966C125.679 16.6961 123.036 14.7487 120.348 14.7487ZM120.41 22.5812H116.96V17.0107H120.41C122.224 17.0107 123.253 18.5122 123.253 19.7966C123.253 21.055 122.224 22.5812 120.41 22.5812ZM135.402 20.2477C133.645 20.2477 131.827 21.0212 131.074 22.7359L133.227 23.6342C133.687 22.7359 134.545 22.4421 135.443 22.4421C136.698 22.4421 137.973 23.1948 137.994 24.5325V24.7002C137.554 24.4493 136.613 24.0736 135.464 24.0736C133.144 24.0736 130.78 25.3489 130.78 27.7318C130.78 29.9067 132.683 31.3068 134.815 31.3068C136.446 31.3068 137.345 30.5749 137.909 29.7169H137.993V30.9714H140.335V24.7405C140.336 21.8571 138.181 20.2477 135.402 20.2477ZM135.108 29.154C134.315 29.154 133.206 28.7562 133.206 27.7734C133.206 26.5189 134.587 26.0379 135.779 26.0379C136.843 26.0379 137.346 26.268 137.994 26.5813C137.805 28.088 136.509 29.154 135.108 29.154ZM148.866 20.6026L146.085 27.6486H146.002L143.116 20.6026H140.503L144.831 30.4501L142.363 35.9283H144.893L151.563 20.6026H148.866ZM127.018 31H129.442V14.7487H127.018V31Z" fill="white"/>
<path d="M49.6436 5.31614C49.6436 6.40554 49.3212 7.27264 48.6751 7.92004C47.9419 8.68964 46.9851 9.07444 45.8099 9.07444C44.6841 9.07444 43.726 8.68444 42.9395 7.90444C42.1517 7.12314 41.7578 6.15594 41.7578 5.00154C41.7578 3.84584 42.1517 2.87864 42.9395 2.09864C43.726 1.31734 44.6841 0.927345 45.8099 0.927345C46.3689 0.927345 46.9032 1.03654 47.4102 1.25364C47.9185 1.47204 48.3254 1.76194 48.6296 2.12464L47.9445 2.81104C47.4284 2.19354 46.7173 1.88544 45.8086 1.88544C44.987 1.88544 44.2772 2.17404 43.6779 2.75124C43.0786 3.32844 42.7796 4.07854 42.7796 5.00024C42.7796 5.92194 43.0786 6.67204 43.6779 7.24924C44.2772 7.82644 44.987 8.11504 45.8086 8.11504C46.6796 8.11504 47.4063 7.82514 47.9874 7.24404C48.3644 6.86574 48.5828 6.33924 48.6413 5.66454H45.8086V4.72724H49.5877C49.6267 4.93134 49.6436 5.12764 49.6436 5.31614Z" fill="white"/>
<path d="M55.6367 2.05842H52.0851V4.53102H55.2883V5.46832H52.0851V7.94092H55.6367V8.90032H51.0828V1.10032H55.6367V2.05842Z" fill="white"/>
<path d="M59.8629 8.90032H58.8606V2.05842H56.6818V1.10032H62.0417V2.05842H59.8629V8.90032Z" fill="white"/>
<path d="M65.9195 8.90032V1.10032H66.9218V8.90032H65.9195Z" fill="white"/>
<path d="M71.3667 8.90032H70.3645V2.05842H68.1856V1.10032H73.5456V2.05842H71.3667V8.90032Z" fill="white"/>
<path d="M83.6918 7.8928C82.9248 8.6806 81.9719 9.0745 80.8318 9.0745C79.6917 9.0745 78.7388 8.6806 77.9731 7.8928C77.2061 7.105 76.8239 6.1404 76.8239 5.0003C76.8239 3.8602 77.2061 2.8956 77.9731 2.1078C78.7388 1.32 79.6917 0.924805 80.8318 0.924805C81.9654 0.924805 82.917 1.3213 83.6866 2.113C84.4562 2.9047 84.841 3.8667 84.841 5.0003C84.841 6.1404 84.4575 7.105 83.6918 7.8928ZM78.7128 7.2389C79.29 7.8239 79.9959 8.1151 80.8318 8.1151C81.6677 8.1151 82.3749 7.8226 82.9508 7.2389C83.528 6.6539 83.8179 5.9077 83.8179 5.0003C83.8179 4.0929 83.528 3.3467 82.9508 2.7617C82.3749 2.1767 81.6677 1.8855 80.8318 1.8855C79.9959 1.8855 79.29 2.178 78.7128 2.7617C78.1369 3.3467 77.847 4.0929 77.847 5.0003C77.847 5.9077 78.1369 6.6539 78.7128 7.2389Z" fill="white"/>
<path d="M86.2476 8.90032V1.10032H87.467L91.2578 7.16742H91.3007L91.2578 5.66462V1.10032H92.2601V8.90032H91.2136L87.2473 2.53812H87.2044L87.2473 4.04092V8.90032H86.2476Z" fill="white"/>
<path d="M49.6436 5.31614C49.6436 6.40554 49.3212 7.27264 48.6751 7.92004C47.9419 8.68964 46.9851 9.07444 45.8099 9.07444C44.6841 9.07444 43.726 8.68444 42.9395 7.90444C42.1517 7.12314 41.7578 6.15594 41.7578 5.00154C41.7578 3.84584 42.1517 2.87864 42.9395 2.09864C43.726 1.31734 44.6841 0.927345 45.8099 0.927345C46.3689 0.927345 46.9032 1.03654 47.4102 1.25364C47.9185 1.47204 48.3254 1.76194 48.6296 2.12464L47.9445 2.81104C47.4284 2.19354 46.7173 1.88544 45.8086 1.88544C44.987 1.88544 44.2772 2.17404 43.6779 2.75124C43.0786 3.32844 42.7796 4.07854 42.7796 5.00024C42.7796 5.92194 43.0786 6.67204 43.6779 7.24924C44.2772 7.82644 44.987 8.11504 45.8086 8.11504C46.6796 8.11504 47.4063 7.82514 47.9874 7.24404C48.3644 6.86574 48.5828 6.33924 48.6413 5.66454H45.8086V4.72724H49.5877C49.6267 4.93134 49.6436 5.12764 49.6436 5.31614Z" stroke="white" stroke-width="0.2" stroke-miterlimit="10"/>
<path d="M55.6367 2.05842H52.0851V4.53102H55.2883V5.46832H52.0851V7.94092H55.6367V8.90032H51.0828V1.10032H55.6367V2.05842Z" stroke="white" stroke-width="0.2" stroke-miterlimit="10"/>
<path d="M59.8629 8.90032H58.8606V2.05842H56.6818V1.10032H62.0417V2.05842H59.8629V8.90032Z" stroke="white" stroke-width="0.2" stroke-miterlimit="10"/>
<path d="M65.9195 8.90032V1.10032H66.9218V8.90032H65.9195Z" stroke="white" stroke-width="0.2" stroke-miterlimit="10"/>
<path d="M71.3667 8.90032H70.3645V2.05842H68.1856V1.10032H73.5456V2.05842H71.3667V8.90032Z" stroke="white" stroke-width="0.2" stroke-miterlimit="10"/>
<path d="M83.6918 7.8928C82.9248 8.6806 81.9719 9.0745 80.8318 9.0745C79.6917 9.0745 78.7388 8.6806 77.9731 7.8928C77.2061 7.105 76.8239 6.1404 76.8239 5.0003C76.8239 3.8602 77.2061 2.8956 77.9731 2.1078C78.7388 1.32 79.6917 0.924805 80.8318 0.924805C81.9654 0.924805 82.917 1.3213 83.6866 2.113C84.4562 2.9047 84.841 3.8667 84.841 5.0003C84.841 6.1404 84.4575 7.105 83.6918 7.8928ZM78.7128 7.2389C79.29 7.8239 79.9959 8.1151 80.8318 8.1151C81.6677 8.1151 82.3749 7.8226 82.9508 7.2389C83.528 6.6539 83.8179 5.9077 83.8179 5.0003C83.8179 4.0929 83.528 3.3467 82.9508 2.7617C82.3749 2.1767 81.6677 1.8855 80.8318 1.8855C79.9959 1.8855 79.29 2.178 78.7128 2.7617C78.1369 3.3467 77.847 4.0929 77.847 5.0003C77.847 5.9077 78.1369 6.6539 78.7128 7.2389Z" stroke="white" stroke-width="0.2" stroke-miterlimit="10"/>
<path d="M86.2476 8.90032V1.10032H87.467L91.2578 7.16742H91.3007L91.2578 5.66462V1.10032H92.2601V8.90032H91.2136L87.2473 2.53812H87.2044L87.2473 4.04092V8.90032H86.2476Z" stroke="white" stroke-width="0.2" stroke-miterlimit="10"/>
<g filter="url(#filter0_ii_192_39951)">
<path d="M1.56674 1.799C1.18844 2.1994 0.964843 2.8208 0.964843 3.6255V32.3763C0.964843 33.1823 1.18844 33.8024 1.56674 34.2028L1.66294 34.2964L17.7686 18.1907V18.0009V17.8111L1.66294 1.7041L1.56674 1.799Z" fill="url(#paint0_linear_192_39951)"/>
<path d="M23.1363 23.5613L17.7686 18.191V18.0012V17.8114L23.1376 12.4424L23.2585 12.5113L29.6194 16.1253C31.4355 17.1575 31.4355 18.8462 29.6194 19.8797L23.2585 23.4937L23.1363 23.5613Z" fill="url(#paint1_linear_192_39951)"/>
<g filter="url(#filter1_i_192_39951)">
<path d="M23.2587 23.4922L17.7675 18.001L1.5669 34.2029C2.1649 34.8373 3.15419 34.9153 4.2683 34.2835L23.2587 23.4922Z" fill="url(#paint2_linear_192_39951)"/>
</g>
<path d="M23.2587 12.5101L4.2683 1.7201C3.15419 1.087 2.1649 1.1663 1.5669 1.8007L17.7688 18.0026L23.2587 12.5101Z" fill="url(#paint3_linear_192_39951)"/>
</g>
<defs>
<filter id="filter0_ii_192_39951" x="0.964844" y="1.2832" width="30.0166" height="33.4365" filterUnits="userSpaceOnUse" color-interpolation-filters="sRGB">
<feFlood flood-opacity="0" result="BackgroundImageFix"/>
<feBlend mode="normal" in="SourceGraphic" in2="BackgroundImageFix" result="shape"/>
<feColorMatrix in="SourceAlpha" type="matrix" values="0 0 0 0 0 0 0 0 0 0 0 0 0 0 0 0 0 0 127 0" result="hardAlpha"/>
<feOffset dy="-0.15"/>
<feComposite in2="hardAlpha" operator="arithmetic" k2="-1" k3="1"/>
<feColorMatrix type="matrix" values="0 0 0 0 0 0 0 0 0 0 0 0 0 0 0 0 0 0 0.12 0"/>
<feBlend mode="normal" in2="shape" result="effect1_innerShadow_192_39951"/>
<feColorMatrix in="SourceAlpha" type="matrix" values="0 0 0 0 0 0 0 0 0 0 0 0 0 0 0 0 0 0 127 0" result="hardAlpha"/>
<feOffset dy="0.15"/>
<feComposite in2="hardAlpha" operator="arithmetic" k2="-1" k3="1"/>
<feColorMatrix type="matrix" values="0 0 0 0 1 0 0 0 0 1 0 0 0 0 1 0 0 0 0.25 0"/>
<feBlend mode="normal" in2="effect1_innerShadow_192_39951" result="effect2_innerShadow_192_39951"/>
</filter>
<filter id="filter1_i_192_39951" x="1.56689" y="18.001" width="21.6919" height="16.7188" filterUnits="userSpaceOnUse" color-interpolation-filters="sRGB">
<feFlood flood-opacity="0" result="BackgroundImageFix"/>
<feBlend mode="normal" in="SourceGraphic" in2="BackgroundImageFix" result="shape"/>
<feColorMatrix in="SourceAlpha" type="matrix" values="0 0 0 0 0 0 0 0 0 0 0 0 0 0 0 0 0 0 127 0" result="hardAlpha"/>
<feOffset dy="-0.15"/>
<feComposite in2="hardAlpha" operator="arithmetic" k2="-1" k3="1"/>
<feColorMatrix type="matrix" values="0 0 0 0 0 0 0 0 0 0 0 0 0 0 0 0 0 0 0.08 0"/>
<feBlend mode="normal" in2="shape" result="effect1_innerShadow_192_39951"/>
</filter>
<linearGradient id="paint0_linear_192_39951" x1="16.341" y1="3.3213" x2="-5.47562" y2="25.1379" gradientUnits="userSpaceOnUse">
<stop stop-color="#00A0FF"/>
<stop offset="0.0066" stop-color="#00A1FF"/>
<stop offset="0.2601" stop-color="#00BEFF"/>
<stop offset="0.5122" stop-color="#00D2FF"/>
<stop offset="0.7604" stop-color="#00DFFF"/>
<stop offset="1" stop-color="#00E3FF"/>
</linearGradient>
<linearGradient id="paint1_linear_192_39951" x1="31.9834" y1="18.0012" x2="0.528732" y2="18.0012" gradientUnits="userSpaceOnUse">
<stop stop-color="#FFE000"/>
<stop offset="0.4087" stop-color="#FFBD00"/>
<stop offset="0.7754" stop-color="#FFA500"/>
<stop offset="1" stop-color="#FF9C00"/>
</linearGradient>
<linearGradient id="paint2_linear_192_39951" x1="20.2766" y1="20.983" x2="-9.30941" y2="50.5691" gradientUnits="userSpaceOnUse">
<stop stop-color="#FF3A44"/>
<stop offset="1" stop-color="#C31162"/>
</linearGradient>
<linearGradient id="paint3_linear_192_39951" x1="-2.51329" y1="-7.77016" x2="10.6977" y2="5.44084" gradientUnits="userSpaceOnUse">
<stop stop-color="#32A071"/>
<stop offset="0.0685" stop-color="#2DA771"/>
<stop offset="0.4762" stop-color="#15CF74"/>
<stop offset="0.8009" stop-color="#06E775"/>
<stop offset="1" stop-color="#00F076"/>
</linearGradient>
</defs>
</svg>
