<svg width="77" height="64" viewBox="0 0 77 64" fill="none" xmlns="http://www.w3.org/2000/svg">
<path d="M30.5539 0V12.8503C26.4914 13.0745 23.4154 13.8159 21.3289 15.0761C19.2409 16.3363 17.7741 18.3795 16.927 21.2074C16.0816 24.0352 15.6572 28.0801 15.6572 33.3435H30.5539V64H0V34.8551C0 22.8167 2.58125 13.9984 7.74375 8.39872C12.9079 2.79904 20.5107 0 30.5539 0ZM76.6801 0V12.8503C72.6177 13.0745 69.5432 13.7886 67.4552 14.9928C65.3671 16.1954 63.8571 18.2402 62.9268 21.1241C61.9964 24.0064 61.5305 28.0801 61.5305 33.3435H76.6801V64H45.9581V34.8551C45.9581 22.8167 48.5249 13.9984 53.6586 8.39872C58.7939 2.79904 66.4672 0 76.6801 0Z" fill="#ED1D24"/>
</svg>
