<svg width="156" height="52" viewBox="0 0 156 52" fill="none" xmlns="http://www.w3.org/2000/svg">
<rect width="156" height="52" rx="7" fill="#101828"/>
<path d="M105.984 24.9615V27.9398H104.117V29.893H105.984V36.5294C105.984 38.7955 107.009 39.702 109.588 39.702C110.041 39.702 110.473 39.648 110.85 39.5833V37.6517C110.527 37.6841 110.322 37.7056 109.966 37.7056C108.811 37.7056 108.304 37.1661 108.304 35.9359V29.893H110.85V27.9398H108.304V24.9615H105.984Z" fill="white"/>
<path d="M117.42 39.8639C120.852 39.8639 122.956 37.5654 122.956 33.7561C122.956 29.9685 120.841 27.6592 117.42 27.6592C113.989 27.6592 111.874 29.9685 111.874 33.7561C111.874 37.5654 113.978 39.8639 117.42 39.8639ZM117.42 37.8028C115.403 37.8028 114.269 36.3244 114.269 33.7561C114.269 31.2095 115.403 29.7203 117.42 29.7203C119.428 29.7203 120.571 31.2095 120.571 33.7561C120.571 36.3136 119.428 37.8028 117.42 37.8028Z" fill="white"/>
<path d="M124.757 39.6372H127.077V32.6986C127.077 31.0476 128.318 29.9361 130.077 29.9361C130.487 29.9361 131.177 30.0117 131.371 30.0764V27.7887C131.123 27.724 130.681 27.6916 130.336 27.6916C128.803 27.6916 127.498 28.5333 127.163 29.6879H126.99V27.8858H124.757V39.6372Z" fill="white"/>
<path d="M137.132 29.634C138.848 29.634 139.97 30.8318 140.024 32.677H134.089C134.219 30.8426 135.416 29.634 137.132 29.634ZM140.013 36.4647C139.582 37.3819 138.621 37.8891 137.218 37.8891C135.362 37.8891 134.165 36.5834 134.089 34.5223V34.3928H142.387V33.5835C142.387 29.893 140.413 27.6592 137.143 27.6592C133.83 27.6592 131.726 30.044 131.726 33.7993C131.726 37.5546 133.787 39.8639 137.154 39.8639C139.841 39.8639 141.718 38.5689 142.247 36.4647H140.013Z" fill="white"/>
<path d="M90.769 35.2976C90.948 38.1832 93.3527 40.0287 96.9317 40.0287C100.757 40.0287 103.15 38.0938 103.15 35.0068C103.15 32.5798 101.786 31.2376 98.4752 30.4659L96.6968 30.0297C94.5941 29.5376 93.7441 28.8777 93.7441 27.7257C93.7441 26.2717 95.0639 25.321 97.0436 25.321C98.9226 25.321 100.22 26.2493 100.455 27.7369H102.893C102.748 25.019 100.354 23.1064 97.0771 23.1064C93.554 23.1064 91.2052 25.019 91.2052 27.8934C91.2052 30.2646 92.5362 31.6738 95.4554 32.3561L97.5357 32.8594C99.6719 33.3627 100.611 34.1009 100.611 35.3312C100.611 36.7628 99.1351 37.803 97.1219 37.803C94.9632 37.803 93.4645 36.8299 93.252 35.2976H90.769Z" fill="white"/>
<path d="M66.7355 27.6916C65.1384 27.6916 63.7572 28.4901 63.045 29.8282H62.8723V27.8858H60.6386V43.5436H62.9586V37.8567H63.1421C63.7572 39.0977 65.0845 39.8315 66.7571 39.8315C69.7246 39.8315 71.613 37.4898 71.613 33.7561C71.613 30.0224 69.7246 27.6916 66.7355 27.6916ZM66.0772 37.7488C64.1349 37.7488 62.9155 36.2165 62.9155 33.7669C62.9155 31.3066 64.1349 29.7743 66.088 29.7743C68.052 29.7743 69.2282 31.2742 69.2282 33.7561C69.2282 36.2489 68.052 37.7488 66.0772 37.7488Z" fill="white"/>
<path d="M79.7313 27.6916C78.1343 27.6916 76.753 28.4901 76.0408 29.8282H75.8681V27.8858H73.6344V43.5436H75.9545V37.8567H76.1379C76.753 39.0977 78.0803 39.8315 79.7529 39.8315C82.7204 39.8315 84.6089 37.4898 84.6089 33.7561C84.6089 30.0224 82.7204 27.6916 79.7313 27.6916ZM79.0731 37.7488C77.1307 37.7488 75.9113 36.2165 75.9113 33.7669C75.9113 31.3066 77.1307 29.7743 79.0839 29.7743C81.0478 29.7743 82.224 31.2742 82.224 33.7561C82.224 36.2489 81.0478 37.7488 79.0731 37.7488Z" fill="white"/>
<path d="M56.476 39.6372H59.1379L53.3107 23.4979H50.6152L44.7881 39.6372H47.3605L48.8481 35.3535H54.9996L56.476 39.6372ZM51.8344 26.4283H52.0245L54.3621 33.2509H49.4856L51.8344 26.4283Z" fill="white"/>
<path d="M46.3467 11.3245V19.1102H49.1577C51.4778 19.1102 52.8213 17.6804 52.8213 15.1931C52.8213 12.7435 51.467 11.3245 49.1577 11.3245H46.3467ZM47.5553 12.4252H49.0229C50.6361 12.4252 51.5911 13.4503 51.5911 15.2093C51.5911 16.9952 50.6523 18.0095 49.0229 18.0095H47.5553V12.4252Z" fill="white"/>
<path d="M56.9359 19.2235C58.6517 19.2235 59.7038 18.0743 59.7038 16.1697C59.7038 14.2758 58.6463 13.1212 56.9359 13.1212C55.2201 13.1212 54.1626 14.2758 54.1626 16.1697C54.1626 18.0743 55.2147 19.2235 56.9359 19.2235ZM56.9359 18.193C55.9269 18.193 55.3604 17.4538 55.3604 16.1697C55.3604 14.8963 55.9269 14.1517 56.9359 14.1517C57.9395 14.1517 58.5114 14.8963 58.5114 16.1697C58.5114 17.4484 57.9395 18.193 56.9359 18.193Z" fill="white"/>
<path d="M68.6636 13.2345H67.5035L66.4568 17.7182H66.3651L65.1565 13.2345H64.045L62.8364 17.7182H62.7501L61.698 13.2345H60.5218L62.1404 19.1102H63.3328L64.5414 14.783H64.6331L65.8471 19.1102H67.0503L68.6636 13.2345Z" fill="white"/>
<path d="M69.9995 19.1102H71.1595V15.6733C71.1595 14.756 71.7045 14.1841 72.5624 14.1841C73.4203 14.1841 73.8303 14.6535 73.8303 15.5977V19.1102H74.9904V15.3064C74.9904 13.9089 74.2674 13.1212 72.9562 13.1212C72.0714 13.1212 71.4887 13.5151 71.2027 14.1679H71.1164V13.2345H69.9995V19.1102Z" fill="white"/>
<path d="M76.8173 19.1102H77.9773V10.9414H76.8173V19.1102Z" fill="white"/>
<path d="M82.3401 19.2235C84.0559 19.2235 85.108 18.0743 85.108 16.1697C85.108 14.2758 84.0505 13.1212 82.3401 13.1212C80.6243 13.1212 79.5668 14.2758 79.5668 16.1697C79.5668 18.0743 80.6189 19.2235 82.3401 19.2235ZM82.3401 18.193C81.3312 18.193 80.7646 17.4538 80.7646 16.1697C80.7646 14.8963 81.3312 14.1517 82.3401 14.1517C83.3437 14.1517 83.9156 14.8963 83.9156 16.1697C83.9156 17.4484 83.3437 18.193 82.3401 18.193Z" fill="white"/>
<path d="M88.5644 18.2307C87.9331 18.2307 87.4745 17.9232 87.4745 17.3944C87.4745 16.8765 87.8414 16.6013 88.6507 16.5473L90.0859 16.4556V16.9466C90.0859 17.675 89.4384 18.2307 88.5644 18.2307ZM88.2676 19.2073C89.0392 19.2073 89.6812 18.8728 90.0319 18.2847H90.1237V19.1102H91.2405V15.0959C91.2405 13.855 90.4096 13.1212 88.9367 13.1212C87.604 13.1212 86.6544 13.7687 86.5357 14.7776H87.6579C87.7874 14.3622 88.2352 14.1248 88.8827 14.1248C89.6758 14.1248 90.0859 14.4755 90.0859 15.0959V15.6031L88.4942 15.6948C87.0968 15.7812 86.309 16.3909 86.309 17.4484C86.309 18.5221 87.1346 19.2073 88.2676 19.2073Z" fill="white"/>
<path d="M95.1771 19.2073C95.9864 19.2073 96.6717 18.8242 97.0224 18.1822H97.1141V19.1102H98.2256V10.9414H97.0655V14.1679H96.9792C96.6609 13.5205 95.981 13.1374 95.1771 13.1374C93.6933 13.1374 92.7383 14.3136 92.7383 16.1697C92.7383 18.0311 93.6825 19.2073 95.1771 19.2073ZM95.5062 14.1787C96.4774 14.1787 97.0871 14.9503 97.0871 16.175C97.0871 17.4052 96.4828 18.166 95.5062 18.166C94.5242 18.166 93.9361 17.416 93.9361 16.1697C93.9361 14.9341 94.5296 14.1787 95.5062 14.1787Z" fill="white"/>
<path d="M105.748 19.2235C107.464 19.2235 108.516 18.0743 108.516 16.1697C108.516 14.2758 107.458 13.1212 105.748 13.1212C104.032 13.1212 102.975 14.2758 102.975 16.1697C102.975 18.0743 104.027 19.2235 105.748 19.2235ZM105.748 18.193C104.739 18.193 104.172 17.4538 104.172 16.1697C104.172 14.8963 104.739 14.1517 105.748 14.1517C106.752 14.1517 107.323 14.8963 107.323 16.1697C107.323 17.4484 106.752 18.193 105.748 18.193Z" fill="white"/>
<path d="M110.051 19.1102H111.211V15.6733C111.211 14.756 111.756 14.1841 112.614 14.1841C113.472 14.1841 113.882 14.6535 113.882 15.5977V19.1102H115.042V15.3064C115.042 13.9089 114.319 13.1212 113.008 13.1212C112.123 13.1212 111.541 13.5151 111.255 14.1679H111.168V13.2345H110.051V19.1102Z" fill="white"/>
<path d="M120.385 11.7723V13.2615H119.451V14.2381H120.385V17.5563C120.385 18.6894 120.897 19.1426 122.187 19.1426C122.414 19.1426 122.629 19.1156 122.818 19.0832V18.1174C122.656 18.1336 122.554 18.1444 122.376 18.1444C121.799 18.1444 121.545 17.8746 121.545 17.2595V14.2381H122.818V13.2615H121.545V11.7723H120.385Z" fill="white"/>
<path d="M124.375 19.1102H125.535V15.6787C125.535 14.7884 126.064 14.1895 127.014 14.1895C127.834 14.1895 128.271 14.6643 128.271 15.6031V19.1102H129.431V15.3172C129.431 13.9197 128.659 13.1266 127.408 13.1266C126.523 13.1266 125.902 13.5205 125.616 14.1787H125.525V10.9414H124.375V19.1102Z" fill="white"/>
<path d="M133.616 14.1086C134.474 14.1086 135.035 14.7075 135.062 15.6301H132.094C132.159 14.7129 132.758 14.1086 133.616 14.1086ZM135.056 17.5239C134.841 17.9825 134.36 18.2361 133.659 18.2361C132.731 18.2361 132.132 17.5833 132.094 16.5527V16.488H136.243V16.0833C136.243 14.2381 135.256 13.1212 133.621 13.1212C131.965 13.1212 130.913 14.3136 130.913 16.1912C130.913 18.0689 131.943 19.2235 133.627 19.2235C134.97 19.2235 135.909 18.576 136.173 17.5239H135.056Z" fill="white"/>
<path d="M32.1999 26.3914C32.228 24.2061 33.4016 22.1383 35.2634 20.9937C34.0889 19.3163 32.1216 18.2528 30.0749 18.1887C27.8919 17.9596 25.7756 19.495 24.6631 19.495C23.5292 19.495 21.8164 18.2115 19.9721 18.2494C17.5681 18.3271 15.3269 19.6939 14.1573 21.7956C11.6431 26.1486 13.5185 32.546 15.9268 36.0646C17.1318 37.7875 18.5401 39.7121 20.3828 39.6438C22.1859 39.5691 22.8594 38.494 25.036 38.494C27.1924 38.494 27.8242 39.6438 29.7043 39.6004C31.6392 39.569 32.8583 37.8698 34.021 36.1306C34.8867 34.9029 35.5529 33.5461 35.9949 32.1103C33.721 31.1486 32.2025 28.8603 32.1999 26.3914Z" fill="white"/>
<path d="M28.6487 15.8747C29.7037 14.6082 30.2235 12.9804 30.0976 11.3369C28.4858 11.5062 26.997 12.2765 25.9277 13.4944C24.8822 14.6843 24.3381 16.2835 24.4409 17.8642C26.0533 17.8808 27.6384 17.1314 28.6487 15.8747Z" fill="white"/>
</svg>
