<svg width="176" height="52" viewBox="0 0 176 52" fill="none" xmlns="http://www.w3.org/2000/svg">
<rect width="175.5" height="52" rx="5" fill="#101828"/>
<path d="M88.5767 28.2763C85.5191 28.2763 83.027 30.602 83.027 33.8052C83.027 36.9889 85.5191 39.3341 88.5767 39.3341C91.6356 39.3341 94.1277 36.9889 94.1277 33.8052C94.1264 30.602 91.6343 28.2763 88.5767 28.2763ZM88.5767 37.1579C86.901 37.1579 85.4567 35.776 85.4567 33.8065C85.4567 31.8162 86.9023 30.4551 88.5767 30.4551C90.2524 30.4551 91.6967 31.8162 91.6967 33.8065C91.6967 35.7747 90.2524 37.1579 88.5767 37.1579ZM76.4685 28.2763C73.4109 28.2763 70.9188 30.602 70.9188 33.8052C70.9188 36.9889 73.4109 39.3341 76.4685 39.3341C79.5274 39.3341 82.0195 36.9889 82.0195 33.8052C82.0195 30.602 79.5274 28.2763 76.4685 28.2763ZM76.4685 37.1579C74.7928 37.1579 73.3485 35.776 73.3485 33.8065C73.3485 31.8162 74.7941 30.4551 76.4685 30.4551C78.1442 30.4551 79.5885 31.8162 79.5885 33.8065C79.5898 35.7747 78.1442 37.1579 76.4685 37.1579ZM62.0671 29.9741V32.3193H67.6805C67.5128 33.6388 67.0734 34.6021 66.4026 35.2716C65.5862 36.088 64.3083 36.9889 62.0671 36.9889C58.6117 36.9889 55.9103 34.203 55.9103 30.7476C55.9103 27.2922 58.6117 24.5063 62.0671 24.5063C63.9313 24.5063 65.2924 25.2395 66.2973 26.182L67.9522 24.5271C66.5482 23.1868 64.6853 22.1611 62.0671 22.1611C57.3338 22.1611 53.3545 26.0143 53.3545 30.7476C53.3545 35.4809 57.3338 39.3341 62.0671 39.3341C64.6216 39.3341 66.5495 38.4956 68.0562 36.9252C69.6058 35.3756 70.0881 33.1968 70.0881 31.4379C70.0881 30.8945 70.0465 30.3914 69.962 29.9728H62.0671V29.9741ZM120.967 31.7954C120.507 30.5604 119.103 28.2763 116.234 28.2763C113.386 28.2763 111.019 30.5175 111.019 33.8052C111.019 36.9044 113.365 39.3341 116.506 39.3341C119.04 39.3341 120.506 37.7845 121.114 36.8836L119.229 35.6265C118.601 36.5482 117.742 37.1553 116.506 37.1553C115.271 37.1553 114.391 36.5898 113.825 35.4796L121.218 32.422L120.967 31.7954ZM113.427 33.6388C113.365 31.5016 115.082 30.4135 116.319 30.4135C117.282 30.4135 118.098 30.8958 118.371 31.5861L113.427 33.6388ZM107.418 39H109.846V22.7487H107.418V39ZM103.437 29.5126H103.354C102.809 28.8626 101.761 28.2763 100.443 28.2763C97.678 28.2763 95.1443 30.706 95.1443 33.8273C95.1443 36.9265 97.678 39.3354 100.443 39.3354C101.763 39.3354 102.809 38.7491 103.354 38.0796H103.437V38.8752C103.437 40.9903 102.306 42.1213 100.485 42.1213C98.9975 42.1213 98.0758 41.054 97.6988 40.1531L95.5837 41.0332C96.1908 42.4983 97.8028 44.3001 100.485 44.3001C103.333 44.3001 105.742 42.6244 105.742 38.5398V28.613H103.438V29.5126H103.437ZM100.652 37.1579C98.9767 37.1579 97.574 35.7539 97.574 33.8273C97.574 31.8786 98.9767 30.4551 100.652 30.4551C102.306 30.4551 103.605 31.8786 103.605 33.8273C103.605 35.7539 102.306 37.1579 100.652 37.1579ZM132.348 22.7487H126.535V39H128.96V32.8432H132.346C135.035 32.8432 137.679 30.8971 137.679 27.7966C137.679 24.6961 135.036 22.7487 132.348 22.7487ZM132.41 30.5812H128.96V25.0107H132.41C134.224 25.0107 135.253 26.5122 135.253 27.7966C135.253 29.055 134.224 30.5812 132.41 30.5812ZM147.402 28.2477C145.645 28.2477 143.827 29.0212 143.074 30.7359L145.227 31.6342C145.687 30.7359 146.545 30.4421 147.443 30.4421C148.698 30.4421 149.973 31.1948 149.994 32.5325V32.7002C149.554 32.4493 148.613 32.0736 147.464 32.0736C145.144 32.0736 142.78 33.3489 142.78 35.7318C142.78 37.9067 144.683 39.3068 146.815 39.3068C148.446 39.3068 149.345 38.5749 149.909 37.7169H149.993V38.9714H152.335V32.7405C152.336 29.8571 150.181 28.2477 147.402 28.2477ZM147.108 37.154C146.315 37.154 145.206 36.7562 145.206 35.7734C145.206 34.5189 146.587 34.0379 147.779 34.0379C148.843 34.0379 149.346 34.268 149.994 34.5813C149.805 36.088 148.509 37.154 147.108 37.154ZM160.866 28.6026L158.085 35.6486H158.002L155.116 28.6026H152.503L156.831 38.4501L154.363 43.9283H156.893L163.563 28.6026H160.866ZM139.018 39H141.442V22.7487H139.018V39Z" fill="white"/>
<path d="M61.6436 13.3161C61.6436 14.4055 61.3212 15.2726 60.6751 15.92C59.9419 16.6896 58.9851 17.0744 57.8099 17.0744C56.6841 17.0744 55.726 16.6844 54.9395 15.9044C54.1517 15.1231 53.7578 14.1559 53.7578 13.0015C53.7578 11.8458 54.1517 10.8786 54.9395 10.0986C55.726 9.31734 56.6841 8.92734 57.8099 8.92734C58.3689 8.92734 58.9032 9.03654 59.4102 9.25364C59.9185 9.47204 60.3254 9.76194 60.6296 10.1246L59.9445 10.811C59.4284 10.1935 58.7173 9.88544 57.8086 9.88544C56.987 9.88544 56.2772 10.174 55.6779 10.7512C55.0786 11.3284 54.7796 12.0785 54.7796 13.0002C54.7796 13.9219 55.0786 14.672 55.6779 15.2492C56.2772 15.8264 56.987 16.115 57.8086 16.115C58.6796 16.115 59.4063 15.8251 59.9874 15.244C60.3644 14.8657 60.5828 14.3392 60.6413 13.6645H57.8086V12.7272H61.5877C61.6267 12.9313 61.6436 13.1276 61.6436 13.3161Z" fill="white"/>
<path d="M67.6367 10.0584H64.0851V12.531H67.2883V13.4683H64.0851V15.9409H67.6367V16.9003H63.0828V9.10032H67.6367V10.0584Z" fill="white"/>
<path d="M71.8629 16.9003H70.8606V10.0584H68.6818V9.10032H74.0417V10.0584H71.8629V16.9003Z" fill="white"/>
<path d="M77.9195 16.9003V9.10032H78.9218V16.9003H77.9195Z" fill="white"/>
<path d="M83.3667 16.9003H82.3645V10.0584H80.1856V9.10032H85.5456V10.0584H83.3667V16.9003Z" fill="white"/>
<path d="M95.6918 15.8928C94.9248 16.6806 93.9719 17.0745 92.8318 17.0745C91.6917 17.0745 90.7388 16.6806 89.9731 15.8928C89.2061 15.105 88.8239 14.1404 88.8239 13.0003C88.8239 11.8602 89.2061 10.8956 89.9731 10.1078C90.7388 9.32 91.6917 8.9248 92.8318 8.9248C93.9654 8.9248 94.917 9.3213 95.6866 10.113C96.4562 10.9047 96.841 11.8667 96.841 13.0003C96.841 14.1404 96.4575 15.105 95.6918 15.8928ZM90.7128 15.2389C91.29 15.8239 91.9959 16.1151 92.8318 16.1151C93.6677 16.1151 94.3749 15.8226 94.9508 15.2389C95.528 14.6539 95.8179 13.9077 95.8179 13.0003C95.8179 12.0929 95.528 11.3467 94.9508 10.7617C94.3749 10.1767 93.6677 9.8855 92.8318 9.8855C91.9959 9.8855 91.29 10.178 90.7128 10.7617C90.1369 11.3467 89.847 12.0929 89.847 13.0003C89.847 13.9077 90.1369 14.6539 90.7128 15.2389Z" fill="white"/>
<path d="M98.2476 16.9003V9.10032H99.467L103.258 15.1674H103.301L103.258 13.6646V9.10032H104.26V16.9003H103.214L99.2473 10.5381H99.2044L99.2473 12.0409V16.9003H98.2476Z" fill="white"/>
<path d="M61.6436 13.3161C61.6436 14.4055 61.3212 15.2726 60.6751 15.92C59.9419 16.6896 58.9851 17.0744 57.8099 17.0744C56.6841 17.0744 55.726 16.6844 54.9395 15.9044C54.1517 15.1231 53.7578 14.1559 53.7578 13.0015C53.7578 11.8458 54.1517 10.8786 54.9395 10.0986C55.726 9.31734 56.6841 8.92734 57.8099 8.92734C58.3689 8.92734 58.9032 9.03654 59.4102 9.25364C59.9185 9.47204 60.3254 9.76194 60.6296 10.1246L59.9445 10.811C59.4284 10.1935 58.7173 9.88544 57.8086 9.88544C56.987 9.88544 56.2772 10.174 55.6779 10.7512C55.0786 11.3284 54.7796 12.0785 54.7796 13.0002C54.7796 13.9219 55.0786 14.672 55.6779 15.2492C56.2772 15.8264 56.987 16.115 57.8086 16.115C58.6796 16.115 59.4063 15.8251 59.9874 15.244C60.3644 14.8657 60.5828 14.3392 60.6413 13.6645H57.8086V12.7272H61.5877C61.6267 12.9313 61.6436 13.1276 61.6436 13.3161Z" stroke="white" stroke-width="0.2" stroke-miterlimit="10"/>
<path d="M67.6367 10.0584H64.0851V12.531H67.2883V13.4683H64.0851V15.9409H67.6367V16.9003H63.0828V9.10032H67.6367V10.0584Z" stroke="white" stroke-width="0.2" stroke-miterlimit="10"/>
<path d="M71.8629 16.9003H70.8606V10.0584H68.6818V9.10032H74.0417V10.0584H71.8629V16.9003Z" stroke="white" stroke-width="0.2" stroke-miterlimit="10"/>
<path d="M77.9195 16.9003V9.10032H78.9218V16.9003H77.9195Z" stroke="white" stroke-width="0.2" stroke-miterlimit="10"/>
<path d="M83.3667 16.9003H82.3645V10.0584H80.1856V9.10032H85.5456V10.0584H83.3667V16.9003Z" stroke="white" stroke-width="0.2" stroke-miterlimit="10"/>
<path d="M95.6918 15.8928C94.9248 16.6806 93.9719 17.0745 92.8318 17.0745C91.6917 17.0745 90.7388 16.6806 89.9731 15.8928C89.2061 15.105 88.8239 14.1404 88.8239 13.0003C88.8239 11.8602 89.2061 10.8956 89.9731 10.1078C90.7388 9.32 91.6917 8.9248 92.8318 8.9248C93.9654 8.9248 94.917 9.3213 95.6866 10.113C96.4562 10.9047 96.841 11.8667 96.841 13.0003C96.841 14.1404 96.4575 15.105 95.6918 15.8928ZM90.7128 15.2389C91.29 15.8239 91.9959 16.1151 92.8318 16.1151C93.6677 16.1151 94.3749 15.8226 94.9508 15.2389C95.528 14.6539 95.8179 13.9077 95.8179 13.0003C95.8179 12.0929 95.528 11.3467 94.9508 10.7617C94.3749 10.1767 93.6677 9.8855 92.8318 9.8855C91.9959 9.8855 91.29 10.178 90.7128 10.7617C90.1369 11.3467 89.847 12.0929 89.847 13.0003C89.847 13.9077 90.1369 14.6539 90.7128 15.2389Z" stroke="white" stroke-width="0.2" stroke-miterlimit="10"/>
<path d="M98.2476 16.9003V9.10032H99.467L103.258 15.1674H103.301L103.258 13.6646V9.10032H104.26V16.9003H103.214L99.2473 10.5381H99.2044L99.2473 12.0409V16.9003H98.2476Z" stroke="white" stroke-width="0.2" stroke-miterlimit="10"/>
<g filter="url(#filter0_ii_145_42599)">
<path d="M13.5667 9.799C13.1884 10.1994 12.9648 10.8208 12.9648 11.6255V40.3763C12.9648 41.1823 13.1884 41.8024 13.5667 42.2028L13.6629 42.2964L29.7686 26.1907V26.0009V25.8111L13.6629 9.7041L13.5667 9.799Z" fill="url(#paint0_linear_145_42599)"/>
<path d="M35.1363 31.5613L29.7686 26.191V26.0012V25.8114L35.1376 20.4424L35.2585 20.5113L41.6194 24.1253C43.4355 25.1575 43.4355 26.8462 41.6194 27.8797L35.2585 31.4937L35.1363 31.5613Z" fill="url(#paint1_linear_145_42599)"/>
<g filter="url(#filter1_i_145_42599)">
<path d="M35.2587 31.4922L29.7675 26.001L13.5669 42.2029C14.1649 42.8373 15.1542 42.9153 16.2683 42.2835L35.2587 31.4922Z" fill="url(#paint2_linear_145_42599)"/>
</g>
<path d="M35.2587 20.5101L16.2683 9.7201C15.1542 9.087 14.1649 9.1663 13.5669 9.8007L29.7688 26.0026L35.2587 20.5101Z" fill="url(#paint3_linear_145_42599)"/>
</g>
<defs>
<filter id="filter0_ii_145_42599" x="12.9648" y="9.2832" width="30.0166" height="33.4365" filterUnits="userSpaceOnUse" color-interpolation-filters="sRGB">
<feFlood flood-opacity="0" result="BackgroundImageFix"/>
<feBlend mode="normal" in="SourceGraphic" in2="BackgroundImageFix" result="shape"/>
<feColorMatrix in="SourceAlpha" type="matrix" values="0 0 0 0 0 0 0 0 0 0 0 0 0 0 0 0 0 0 127 0" result="hardAlpha"/>
<feOffset dy="-0.15"/>
<feComposite in2="hardAlpha" operator="arithmetic" k2="-1" k3="1"/>
<feColorMatrix type="matrix" values="0 0 0 0 0 0 0 0 0 0 0 0 0 0 0 0 0 0 0.12 0"/>
<feBlend mode="normal" in2="shape" result="effect1_innerShadow_145_42599"/>
<feColorMatrix in="SourceAlpha" type="matrix" values="0 0 0 0 0 0 0 0 0 0 0 0 0 0 0 0 0 0 127 0" result="hardAlpha"/>
<feOffset dy="0.15"/>
<feComposite in2="hardAlpha" operator="arithmetic" k2="-1" k3="1"/>
<feColorMatrix type="matrix" values="0 0 0 0 1 0 0 0 0 1 0 0 0 0 1 0 0 0 0.25 0"/>
<feBlend mode="normal" in2="effect1_innerShadow_145_42599" result="effect2_innerShadow_145_42599"/>
</filter>
<filter id="filter1_i_145_42599" x="13.5669" y="26.001" width="21.6919" height="16.7188" filterUnits="userSpaceOnUse" color-interpolation-filters="sRGB">
<feFlood flood-opacity="0" result="BackgroundImageFix"/>
<feBlend mode="normal" in="SourceGraphic" in2="BackgroundImageFix" result="shape"/>
<feColorMatrix in="SourceAlpha" type="matrix" values="0 0 0 0 0 0 0 0 0 0 0 0 0 0 0 0 0 0 127 0" result="hardAlpha"/>
<feOffset dy="-0.15"/>
<feComposite in2="hardAlpha" operator="arithmetic" k2="-1" k3="1"/>
<feColorMatrix type="matrix" values="0 0 0 0 0 0 0 0 0 0 0 0 0 0 0 0 0 0 0.08 0"/>
<feBlend mode="normal" in2="shape" result="effect1_innerShadow_145_42599"/>
</filter>
<linearGradient id="paint0_linear_145_42599" x1="28.341" y1="11.3213" x2="6.52438" y2="33.1379" gradientUnits="userSpaceOnUse">
<stop stop-color="#00A0FF"/>
<stop offset="0.0066" stop-color="#00A1FF"/>
<stop offset="0.2601" stop-color="#00BEFF"/>
<stop offset="0.5122" stop-color="#00D2FF"/>
<stop offset="0.7604" stop-color="#00DFFF"/>
<stop offset="1" stop-color="#00E3FF"/>
</linearGradient>
<linearGradient id="paint1_linear_145_42599" x1="43.9834" y1="26.0012" x2="12.5287" y2="26.0012" gradientUnits="userSpaceOnUse">
<stop stop-color="#FFE000"/>
<stop offset="0.4087" stop-color="#FFBD00"/>
<stop offset="0.7754" stop-color="#FFA500"/>
<stop offset="1" stop-color="#FF9C00"/>
</linearGradient>
<linearGradient id="paint2_linear_145_42599" x1="32.2766" y1="28.983" x2="2.69059" y2="58.5691" gradientUnits="userSpaceOnUse">
<stop stop-color="#FF3A44"/>
<stop offset="1" stop-color="#C31162"/>
</linearGradient>
<linearGradient id="paint3_linear_145_42599" x1="9.48671" y1="0.229841" x2="22.6977" y2="13.4408" gradientUnits="userSpaceOnUse">
<stop stop-color="#32A071"/>
<stop offset="0.0685" stop-color="#2DA771"/>
<stop offset="0.4762" stop-color="#15CF74"/>
<stop offset="0.8009" stop-color="#06E775"/>
<stop offset="1" stop-color="#00F076"/>
</linearGradient>
</defs>
</svg>
