<svg width="24" height="24" viewBox="0 0 24 24" fill="none" xmlns="http://www.w3.org/2000/svg">
<path d="M23 8.25H21.421C20.978 8.25 20.588 8.54198 20.462 8.96602L19.49 12.25H19.382L18.95 10.938C18.814 10.527 18.432 10.25 18 10.25H16V9.24999C16 8.69799 15.553 8.25 15 8.25H13V7.25002H14C14.553 7.25002 15 6.80203 15 6.25003V3.24998C15 2.69798 14.553 2.25 14 2.25H6C5.44702 2.25 5.00002 2.69798 5.00002 3.24998V6.24998C5.00002 6.80198 5.44702 7.24997 6 7.24997H6.99998V8.24995H3.99998C3.447 8.25 3 8.69799 3 9.24999V13.25H2.00002V12.25C2.00002 11.698 1.55302 11.25 1.00003 11.25C0.447 11.25 0 11.698 0 12.25V16.25C0 16.802 0.447 17.25 0.999984 17.25C1.55297 17.25 1.99997 16.802 1.99997 16.25V15.25H3V17.25C3 17.398 3.033 17.544 3.09698 17.678L4.518 20.678C4.683 21.027 5.034 21.25 5.421 21.25H17.474C17.827 21.25 18.154 21.063 18.334 20.76L19.229 19.2501H19.557L20.49 21.6171C20.642 21.999 21.011 22.2501 21.421 22.2501H23C23.553 22.2501 24 21.8021 24 21.2501V9.24999C24 8.69799 23.553 8.25 23 8.25Z" fill="white"/>
</svg>
