<svg width="24" height="24" viewBox="0 0 24 24" fill="none" xmlns="http://www.w3.org/2000/svg">
<g clip-path="url(#clip0_145_42681)">
<path d="M22.6471 7.4348C22.3051 7.0357 22.0789 6.80545 21.6709 6.38723C20.3617 5.04788 19.1776 3.86334 19.1763 3.86213L18.5861 3.2715L17.7689 4.06959L19.4592 6.63511L19.4768 6.67097C19.4857 6.69867 19.4943 6.74437 19.4943 6.80344C19.4967 6.93019 19.4486 7.11323 19.3781 7.23998L19.2297 7.51308C19.0581 7.82977 18.9619 8.50275 18.9623 8.85248C18.9619 9.18914 19.0418 9.52749 19.202 9.83602L19.4943 10.3997C19.8362 11.0593 20.4949 11.4848 21.2282 11.541L21.3689 11.5851C21.3689 13.4401 21.3689 15.7524 21.3689 17.5305C21.3664 18.0481 21.2144 18.3563 21.046 18.5446C20.8748 18.7317 20.6726 18.8087 20.4876 18.8092C20.3082 18.8059 20.1493 18.746 19.9993 18.5772C19.8525 18.4077 19.7009 18.0946 19.6993 17.5305C19.6993 15.8609 19.6993 15.4435 19.6993 14.4C19.6988 14.0666 19.632 13.7365 19.5097 13.4169C19.3255 12.9392 19.0128 12.4794 18.5559 12.124C18.1022 11.7685 17.4929 11.5337 16.8109 11.5362C16.731 11.5362 16.6504 11.5407 16.5689 11.5468V2.24794C16.5689 1.00636 15.5625 0 14.3209 0H4.45884C3.21727 0 2.21091 1.00636 2.21091 2.24794V21.287H0.75V24H18.0297V21.287H16.5689V13.2269C16.6552 13.2143 16.7376 13.2057 16.8109 13.2057C17.0217 13.2065 17.1864 13.2493 17.331 13.3182C17.5463 13.421 17.7236 13.5946 17.8479 13.8033C17.973 14.0087 18.0317 14.2468 18.0297 14.4C18.0297 15.4435 18.0297 15.8609 18.0297 17.5305C18.0281 18.4003 18.2787 19.1438 18.7389 19.6724C19.1955 20.2023 19.848 20.4824 20.4876 20.4791C21.1524 20.4795 21.8082 20.1901 22.2827 19.6663C22.7596 19.143 23.0408 18.3938 23.0384 17.5305C23.0384 14.8174 23.0384 10.487 23.0384 8.81742C23.0385 8.0348 22.9602 7.8 22.6471 7.4348ZM13.2298 10.6435H5.55V3.33914H13.2297L13.2298 10.6435ZM21.3689 9.93792C21.3689 10.0695 21.2935 10.1311 21.1863 10.1291C20.9845 10.1258 20.6702 10.0822 20.5341 9.86086C20.2908 9.46547 19.963 8.69508 20.3181 8.09105C20.3559 8.02664 20.4387 7.92309 20.5863 8.02177L21.0611 8.45789C21.2572 8.63723 21.3689 8.89036 21.3689 9.15609C21.3689 9.15609 21.3689 9.80625 21.3689 9.93792Z" fill="white"/>
</g>
<defs>
<clipPath id="clip0_145_42681">
<rect width="24" height="24" fill="white"/>
</clipPath>
</defs>
</svg>
