<svg width="24" height="24" viewBox="0 0 24 24" fill="none" xmlns="http://www.w3.org/2000/svg">
<g clip-path="url(#clip0_145_42674)">
<path d="M20.4853 3.51469C18.2188 1.24819 15.2053 0 12 0C8.79469 0 5.78123 1.24819 3.51469 3.51469C1.24819 5.78123 0 8.79464 0 12C0 15.2054 1.24819 18.2188 3.51469 20.4853C5.78123 22.7518 8.79469 24 12 24C15.2053 24 18.2188 22.7518 20.4853 20.4853C22.7518 18.2188 24 15.2054 24 12C24 8.79464 22.7518 5.78123 20.4853 3.51469ZM12.7826 17.8231H11.2174V12.7826H7.09927V17.8231H5.53406V6.17686H7.09927V11.2174H11.2174V6.17691H12.7826V11.2174H16.9008V6.17691H18.466V12.7826H12.7826V17.8231ZM18.2014 17.5814L17.6235 16.6482H17.311V17.5814H16.4762V14.5421H17.8718C18.4667 14.5421 18.8948 15.0772 18.8948 15.5952C18.8948 15.9462 18.7322 16.2715 18.4582 16.4641L19.1431 17.5814H18.2014V17.5814Z" fill="white"/>
<path d="M17.8162 15.2695H17.311V15.9202H17.8376C17.9404 15.9202 18.0474 15.8003 18.0474 15.5949C18.0473 15.3851 17.9188 15.2695 17.8162 15.2695Z" fill="white"/>
</g>
<defs>
<clipPath id="clip0_145_42674">
<rect width="24" height="24" fill="white"/>
</clipPath>
</defs>
</svg>
