<svg width="24" height="24" viewBox="0 0 24 24" fill="none" xmlns="http://www.w3.org/2000/svg">
<g clip-path="url(#clip0_145_42684)">
<path d="M15.9192 9.28439C15.804 8.79361 15.4328 8.40998 14.9504 8.28318C14.4476 8.15118 13.5944 7.99316 12.3796 7.99316C12.2368 7.99316 12.1448 7.99598 12.1268 7.99677L12.0156 8.00118L11.8804 7.99677C11.8624 7.99598 11.7684 7.99316 11.6196 7.99316C10.4052 7.99316 9.55157 8.15118 9.04917 8.28318C8.56635 8.40998 8.19514 8.79361 8.07997 9.28397L6.90795 14.2664C6.85236 14.5004 6.84237 14.7312 6.87715 14.9524C6.89717 15.0796 6.91915 15.2012 6.94236 15.3168C7.07876 15.9952 7.71917 16.4428 8.39957 16.3716V15.1996C8.39957 14.9784 8.57835 14.7996 8.79955 14.7996C9.02076 14.7996 9.19954 14.9784 9.19954 15.1996V16.2408C9.46832 16.1968 9.73476 16.1596 9.99956 16.1276V14.7996C9.99956 14.5784 10.1783 14.3997 10.3995 14.3997C10.6208 14.3997 10.7995 14.5784 10.7995 14.7996V16.0505C11.0691 16.0304 11.3356 16.0173 11.5996 16.0105V14.3997C11.5996 14.1785 11.7783 13.9997 11.9995 13.9997C12.2207 13.9997 12.3995 14.1785 12.3995 14.3997V16.0105C12.6635 16.0173 12.9299 16.0305 13.1995 16.0505V14.7996C13.1995 14.5784 13.3783 14.3997 13.5995 14.3997C13.8207 14.3997 13.9995 14.5784 13.9995 14.7996V16.1277C14.2647 16.1597 14.5311 16.1965 14.7995 16.2404V15.1996C14.7995 14.9784 14.9783 14.7996 15.1995 14.7996C15.4207 14.7996 15.5995 14.9784 15.5995 15.1996V16.3717C16.2787 16.4424 16.9203 15.9952 17.0571 15.3169C17.0799 15.2016 17.1019 15.0805 17.1223 14.9533C17.1571 14.7317 17.1463 14.5004 17.0915 14.2664L15.9192 9.28439Z" fill="white"/>
<path d="M20.2834 15.4521C20.383 14.8189 20.357 14.1733 20.2066 13.5337L18.7818 7.48125C18.3346 6.04522 16.733 5.37163 15.1998 5.05845V4.00001H16.325C16.7462 4.00001 17.1402 3.79319 17.3802 3.44721C17.6198 3.1016 17.6742 2.65961 17.5266 2.26642L16.989 0.832411C16.8022 0.334408 16.3194 0 15.7878 0H8.21177C7.68016 0 7.19735 0.334408 7.01017 0.832786L6.47256 2.266C6.32495 2.65961 6.37975 3.1016 6.61937 3.44721C6.85895 3.79319 7.25336 4.00001 7.67416 4.00001H8.79978V5.06244C7.26217 5.37964 5.66054 6.06004 5.21016 7.50806L3.79251 13.5337C3.64209 14.1733 3.6165 14.8189 3.71653 15.4525C4.17933 18.3849 5.41655 20.0001 7.19974 20.0001H7.27014L7.33614 19.9761C7.35733 19.9685 9.50577 19.2001 11.9998 19.2001C14.4934 19.2001 16.6418 19.9685 16.6634 19.9761L16.7294 20.0001H16.7998C18.583 20.0001 19.8202 18.3849 20.2834 15.4521ZM9.59975 4.00001H14.3998V4.92401C13.149 4.75559 12.1034 4.796 12.0178 4.8004C11.9166 4.7952 10.859 4.75479 9.59975 4.9264V4.00001ZM17.9126 15.0785C17.8902 15.2177 17.867 15.3497 17.8414 15.4749C17.6382 16.4861 16.7418 17.1865 15.7414 17.1865C15.6018 17.1865 15.4598 17.1725 15.3174 17.1441C14.1738 16.9157 13.0578 16.8001 11.9998 16.8001C10.9418 16.8001 9.82578 16.9157 8.68259 17.1441C7.52097 17.3777 6.38936 16.6269 6.15779 15.4741C6.13257 15.3485 6.109 15.2169 6.08739 15.0777C6.0362 14.7537 6.05017 14.4189 6.12901 14.0833L7.30141 9.10126C7.4846 8.32167 8.07621 7.71206 8.84581 7.51003C9.39341 7.36561 10.3198 7.19362 11.6198 7.19362C11.7858 7.19362 11.8906 7.19723 11.9126 7.19803L12.0166 7.20243L12.091 7.19803C12.1043 7.19723 12.2106 7.19362 12.3798 7.19362C13.6798 7.19362 14.6058 7.36561 15.1542 7.51003C15.923 7.71201 16.515 8.32163 16.6983 9.10163L17.8707 14.0833C17.9494 14.4189 17.9634 14.7537 17.9126 15.0785Z" fill="white"/>
<path d="M3.50369 17.8105C3.21367 17.9173 2.91807 18.0758 2.6657 18.315C2.22371 18.733 1.99969 19.2998 2.00049 20.0222C2.00208 20.0606 2.26407 23.7818 6.79972 23.9898V20.775C5.76931 20.6614 4.3721 20.051 3.50369 17.8105Z" fill="white"/>
<path d="M11.9997 20C9.67084 20 7.62722 20.7216 7.6072 20.7288L7.59961 20.7316V24.0001H16.3996V20.7313L16.3916 20.7284C16.372 20.7216 14.3285 20 11.9997 20Z" fill="white"/>
<path d="M21.3337 18.315C21.0809 18.0758 20.7853 17.917 20.4957 17.8105C19.627 20.051 18.2301 20.6614 17.1997 20.775V23.9898C21.7349 23.7818 21.9969 20.0602 21.9997 19.9998C21.9997 19.2998 21.7753 18.733 21.3337 18.315Z" fill="white"/>
</g>
<defs>
<clipPath id="clip0_145_42684">
<rect width="24" height="24" fill="white"/>
</clipPath>
</defs>
</svg>
