<svg width="24" height="24" viewBox="0 0 24 24" fill="none" xmlns="http://www.w3.org/2000/svg">
<g clip-path="url(#clip0_145_42662)">
<g clip-path="url(#clip1_145_42662)">
<path d="M12.0001 0C5.37244 0 0 5.37248 0 12.0002C0 18.6275 5.37244 24 12.0001 24C18.6275 24 24 18.6275 24 12.0002C23.9999 5.37248 18.6275 0 12.0001 0ZM12.0001 19.6491C7.77539 19.6491 4.35084 16.2249 4.35084 12.0002C4.35084 7.77544 7.77539 4.35094 12.0001 4.35094C16.2245 4.35094 19.649 7.77548 19.649 12.0002C19.649 16.225 16.2245 19.6491 12.0001 19.6491Z" fill="white"/>
<path d="M12.0001 12.7401C12.4088 12.7401 12.7396 12.4093 12.7396 12.0006C12.7396 11.592 12.4088 11.2607 12.0001 11.2607C11.5911 11.2607 11.2603 11.592 11.2603 12.0006C11.2602 12.4093 11.5911 12.7401 12.0001 12.7401Z" fill="white"/>
<path d="M7.0651 9.21775C7.11704 9.35622 7.22893 9.46333 7.36979 9.50894L10.006 10.3662C10.2516 10.4452 10.5205 10.4031 10.7292 10.2516C10.9375 10.0992 11.0617 9.85684 11.0617 9.59894V6.82863C11.0617 6.68106 10.9939 6.541 10.8776 6.44978C10.7618 6.35735 10.6102 6.32402 10.4666 6.35735C10.4666 6.35735 10.5059 6.32763 10.2392 6.41134C8.99513 6.80369 7.9291 7.59916 7.19715 8.64569C7.0464 8.8607 7.10433 8.7992 7.10433 8.7992C7.02858 8.92497 7.01433 9.07891 7.0651 9.21775Z" fill="white"/>
<path d="M9.94442 12.6689C9.86468 12.4229 9.67222 12.2301 9.42668 12.1512L6.79161 11.295C6.65117 11.2494 6.49765 11.2709 6.37465 11.3521C6.25165 11.4343 6.17271 11.568 6.16001 11.7155C6.16001 11.7155 6.14417 11.6687 6.14136 11.948C6.12945 13.2525 6.55714 14.5113 7.32603 15.5317C7.4839 15.7411 7.44265 15.6669 7.44265 15.6669C7.53982 15.7784 7.68186 15.8395 7.82867 15.8335C7.97661 15.8276 8.11348 15.7546 8.19997 15.6348L9.82972 13.3913C9.98126 13.1831 10.0237 12.9137 9.94442 12.6689Z" fill="white"/>
<path d="M12.6529 14.4942C12.5006 14.2859 12.2581 14.1621 12.0003 14.1621C11.742 14.1621 11.4996 14.2859 11.3484 14.4942L9.71951 16.7353C9.63303 16.8547 9.60523 17.0078 9.64568 17.1506C9.68496 17.293 9.78771 17.4089 9.92459 17.4665C9.92459 17.4665 9.87462 17.4676 10.14 17.5565C11.377 17.9711 12.7064 17.9528 13.9137 17.5366C14.1616 17.4514 14.0787 17.4676 14.0787 17.4676C14.2152 17.4105 14.3175 17.2939 14.3568 17.1518C14.3965 17.009 14.3683 16.8567 14.2818 16.7372L12.6529 14.4942Z" fill="white"/>
<path d="M17.2103 11.2943L14.5737 12.1512C14.3285 12.2301 14.1353 12.4229 14.0563 12.6689C13.9762 12.9137 14.0186 13.1831 14.171 13.3909L15.7988 15.6325C15.8861 15.7527 16.0229 15.8245 16.1709 15.8316C16.3185 15.838 16.4605 15.7757 16.5569 15.6638C16.5569 15.6638 16.5426 15.711 16.7088 15.4869C17.4852 14.4384 17.8799 13.1676 17.8573 11.8913C17.8529 11.6295 17.8419 11.7136 17.8419 11.7136C17.8292 11.566 17.7506 11.4323 17.6273 11.351C17.5043 11.2701 17.3512 11.2482 17.2103 11.2943Z" fill="white"/>
<path d="M13.2708 10.2519C13.4799 10.403 13.7481 10.4455 13.9937 10.3665L16.6279 9.50922C16.7688 9.46394 16.8807 9.35645 16.9326 9.21803C16.9842 9.07918 16.9691 8.92483 16.8922 8.79831C16.8922 8.79831 16.9331 8.82606 16.7708 8.59914C16.0138 7.53629 14.9276 6.76904 13.7065 6.39573C13.4553 6.31956 13.5319 6.35528 13.5319 6.35528C13.3879 6.32195 13.2368 6.35603 13.1217 6.44809C13.0054 6.53894 12.938 6.679 12.938 6.82618V9.59893C12.938 9.85708 13.0622 10.0995 13.2708 10.2519Z" fill="white"/>
</g>
</g>
<defs>
<clipPath id="clip0_145_42662">
<rect width="24" height="24" fill="white"/>
</clipPath>
<clipPath id="clip1_145_42662">
<rect width="24" height="24" fill="white"/>
</clipPath>
</defs>
</svg>
