<svg width="81" height="50" viewBox="0 0 81 50" fill="none" xmlns="http://www.w3.org/2000/svg">
<path fill-rule="evenodd" clip-rule="evenodd" d="M66.1382 38.8629V49.7164H62.1433V38.8629H66.1382ZM53.3018 41.2474C55.4677 41.2474 57.2432 42.5733 57.2432 44.2002C57.2432 45.8337 55.4677 47.1597 53.3018 47.1597C51.1359 47.1597 49.3609 45.8337 49.3609 44.2002C49.3609 42.5733 51.1359 41.2474 53.3018 41.2474ZM54.3552 38.8629L51.0825 35.1699H55.9646L60.462 41.2474C60.9002 41.8687 61.2315 42.9282 61.2788 43.9934C61.4392 47.2775 57.6871 49.9824 53.3018 49.9824C48.9166 49.9824 45.3249 47.2898 45.3249 43.9934C45.3244 40.6913 48.5437 38.1109 54.3552 38.8629ZM35.5843 44.9408C35.5843 46.4139 36.9509 47.1597 38.0753 47.1597C39.1996 47.1597 40.6973 46.3311 40.6973 44.9408V38.8629H44.4783V44.9408C44.4783 49.1538 40.7503 49.9999 38.0753 49.9999C35.4063 49.9999 31.6012 49.1538 31.6012 44.9408V38.8629H35.5843V44.9408ZM23.594 35.1699L32.7724 49.7159H28.1917L26.5762 47.1597H17.7001L16.025 49.7159H11.3501L19.8954 36.5664L18.6002 35.1699H23.594ZM24.9436 44.5438H19.3867L22.2037 40.2177L24.9436 44.5438Z" fill="#101828" fill-opacity="0.3"/>
<path fill-rule="evenodd" clip-rule="evenodd" d="M23.115 22.3105C20.961 20.156 19.7363 17.3986 19.7363 14.1315C19.7363 11.0187 20.9018 8.24903 22.8723 6.1191C24.8077 8.23152 26.003 11.0485 26.003 14.1315C26.003 16.2737 25.589 18.079 24.5825 19.8124C26.0802 15.0547 25.6477 11.7049 23.8135 9.04781C24.1447 9.51534 25.0443 12.1369 24.8787 14.131C24.8787 16.3386 24.2039 18.3923 23.0554 20.0963L23.115 22.3105ZM80.5957 14.132C80.5957 21.9144 74.2457 28.2517 66.4694 28.2517C63.2146 28.2517 60.2083 27.1448 57.7523 25.2638C55.2911 27.1221 52.2663 28.2517 48.9823 28.2517C45.7389 28.2517 42.7444 27.1448 40.277 25.3168C37.8092 27.1633 34.8332 28.2517 31.6135 28.2517C28.3587 28.2517 25.3528 27.1448 22.8964 25.2638C20.4404 27.1221 17.4104 28.2517 14.132 28.2517C6.34957 28.2517 0 21.9139 0 14.132C0 6.35003 6.34957 1.13e-05 14.132 1.13e-05C17.4104 1.13e-05 20.4404 1.13099 22.8661 3.0243C25.2989 1.13099 28.3346 1.13e-05 31.6135 1.13e-05C34.8919 1.13e-05 37.8807 1.12436 40.3125 2.97083C42.7904 1.0417 45.842 -0.00396526 48.9823 1.13e-05C52.2663 1.13e-05 55.2911 1.13099 57.7173 3.0243C60.1548 1.13099 63.1909 1.13e-05 66.4694 1.13e-05C74.5414 1.13e-05 80.5957 6.33252 80.5957 14.132ZM66.4694 1.47974C64.0782 1.47974 61.8773 2.16022 59.9774 3.34987C63.084 0.869772 68.0726 0.331733 73.8018 2.332C71.7367 1.07751 69.0734 0.266902 66.4694 0.266902C63.1611 0.266902 60.0957 1.46791 57.705 3.42085L57.7405 5.01273C55.462 2.82934 52.3728 1.48021 48.9818 1.48021C46.6881 1.47629 44.4405 2.12491 42.5016 3.35035C45.5974 0.870247 50.5921 0.332206 56.3142 2.33247C54.2486 1.07799 51.5915 0.267375 48.9818 0.267375C45.6849 0.267375 42.7032 1.37989 40.312 3.33852V5.01321C38.0402 2.82981 35.004 1.48069 31.613 1.48069C29.3175 1.47663 27.0681 2.12521 25.1271 3.35082C28.2276 0.87072 33.2167 0.332679 38.9449 2.33294C36.8794 1.07846 34.2227 0.26785 31.613 0.26785C28.3104 0.26785 25.2454 1.46886 22.8486 3.4218L22.8846 5.01368C20.6122 2.83029 17.5226 1.48116 14.132 1.48116C11.8348 1.47784 9.58383 2.12633 7.64049 3.35129C10.7471 0.871193 15.7357 0.333152 21.464 2.33341C19.3989 1.07893 16.7356 0.268323 14.132 0.268323C6.49769 0.268323 0.266419 6.50572 0.266419 14.1334C0.266419 16.7848 1.18918 19.6842 2.75741 22.0218C-0.408383 15.7788 1.18918 11.0325 3.20791 8.07962C2.43231 9.81346 1.42058 12.1331 1.47406 14.1334C1.66949 21.0163 7.16681 26.7861 14.1325 26.7861C17.665 26.7861 20.6477 25.5316 22.9915 23.1642C25.3112 25.5846 28.0279 26.7861 31.6139 26.7861C33.2419 26.7865 34.8536 26.4628 36.3552 25.8339C37.8567 25.205 39.2181 24.2834 40.3598 23.123C42.6156 25.3835 45.5562 26.7861 48.9827 26.7861C52.5219 26.7861 55.4989 25.5316 57.8417 23.1642C60.1676 25.5846 62.8781 26.7861 66.4698 26.7861C73.4355 26.7861 79.1164 21.0991 79.1164 14.1334C79.116 7.21411 73.3877 1.47974 66.4694 1.47974ZM38.6435 22.2575C36.6937 23.9525 34.197 24.8857 31.6135 24.8852C29.0747 24.8431 27.938 24.3997 26.8553 23.8674C29.9563 26.2817 36.8448 25.3466 38.6019 23.8314C36.6849 25.2103 34.2757 26.0039 31.613 26.0039C28.3459 26.0039 25.5942 24.8086 23.4288 22.672C25.6538 20.4053 26.7782 17.559 26.7782 14.1325C26.7782 10.8006 25.4707 7.75357 23.346 5.48689C24.9733 3.85337 28.1926 2.25581 31.6135 2.25581C34.7262 2.25581 37.6554 3.67024 39.7863 5.64636H38.2176C36.2117 8.04886 35.128 10.7774 35.128 14.1325C35.128 16.7839 36.0512 19.6832 37.6138 22.0209C34.448 15.7778 36.0512 11.0315 38.0638 8.07867C37.2882 9.81251 36.2883 12.1383 36.3356 14.1325C36.4071 17.2277 37.8092 20.0978 39.7087 22.3228L38.6435 22.2575ZM40.3064 22.0564C38.3061 19.926 37.1169 17.2448 37.1169 14.132C37.1169 11.0192 38.3298 8.17284 40.312 6.04812C42.3303 8.16669 43.4845 10.9776 43.4845 14.132C43.4845 16.2742 43.0699 18.0795 42.0639 19.8129C43.5611 15.0552 43.1286 11.7054 41.2944 9.04828C41.6262 9.51581 42.5257 12.1374 42.3658 14.1315C42.3658 16.4043 41.6498 18.5286 40.4365 20.2686L40.3064 22.0564ZM40.922 22.6829C43.0174 20.446 44.2653 17.4577 44.2653 14.1315C44.2653 10.7996 43.0467 7.92393 40.922 5.64542C43.0524 3.55099 45.7748 2.25486 48.9823 2.25486C52.0775 2.25486 54.9769 3.42038 57.0898 5.37947L55.7288 5.38563C53.7058 7.85126 52.6013 10.9426 52.6037 14.132C52.6037 16.7834 53.527 19.6827 55.0952 22.0204C51.9294 15.7773 53.5275 11.031 55.5452 8.0782C54.7696 9.81204 53.7631 12.126 53.8109 14.132C53.8819 17.4459 54.9949 20.1744 57.1367 22.4643L55.912 22.3346C54.0418 23.9151 51.6157 24.8857 48.9818 24.8857C46.443 24.8436 45.4071 24.341 44.2298 23.8678C47.3246 26.2821 54.2132 25.3471 55.9707 23.8319C54.0532 25.2108 51.6445 26.0044 48.9818 26.0044C45.5676 26.0034 43.1177 24.6482 40.922 22.6829ZM42.9578 22.5769C44.65 23.7959 46.7567 24.5062 48.9818 24.5062C51.213 24.5062 53.3964 23.7543 55.1066 22.5532C53.42 20.2156 52.3369 17.2273 52.3369 14.132C52.3369 11.0254 53.3491 8.1435 55.0706 5.77603C53.3146 4.4578 51.177 3.74747 48.9813 3.75257C46.7563 3.75257 44.6964 4.43305 43.0042 5.64589C44.6311 7.94238 45.7322 11.0727 45.7322 14.132C45.7332 17.2273 44.6443 20.2392 42.9578 22.5769ZM40.3485 19.7187C41.4219 18.0534 41.9912 16.1133 41.9877 14.132C41.9877 12.0371 41.4071 10.0785 40.3125 8.49841C39.2591 10.1613 38.6085 12.0787 38.6085 14.132C38.6085 16.1441 39.342 18.1145 40.3485 19.7187ZM37.6256 22.5353C35.8979 20.1328 34.8559 17.2448 34.8559 14.132C34.8551 11.0909 35.8415 8.13175 37.6668 5.69936C35.9741 4.52154 33.8144 3.75257 31.6191 3.75257C28.9852 3.60446 26.1095 5.11353 25.6893 5.82335C27.2519 8.0782 28.2574 11.1432 28.2574 14.132C28.2574 17.2211 27.2519 20.0859 25.5232 22.4581C27.2102 23.7604 29.3288 24.5062 31.613 24.5062C33.8442 24.5062 35.9277 23.7959 37.6256 22.5353ZM22.2808 22.4643L21.0556 22.3346C19.1855 23.9151 16.7655 24.8857 14.132 24.8857C11.5932 24.8436 10.8408 24.2402 9.36772 23.8678C12.4696 26.2821 19.3572 25.3471 21.1209 23.8319C19.1978 25.2108 16.7891 26.0044 14.132 26.0044C7.59885 26.0044 2.25486 20.6722 2.25486 14.1329C2.25486 7.59363 7.5927 2.25628 14.132 2.25628C17.2268 2.25628 20.1267 3.4218 22.2396 5.38089L20.8725 5.38704C18.9257 7.77155 17.7478 10.8252 17.7478 14.1334C17.7478 16.7848 18.6768 19.6842 20.2393 22.0218C17.0735 15.7788 18.6772 11.0325 20.6893 8.07962C19.9142 9.81346 18.9138 12.1275 18.9616 14.1334C19.0317 17.4459 20.1385 20.1739 22.2808 22.4643ZM22.9139 19.6297C23.9549 17.9849 24.5068 16.0781 24.5053 14.1315C24.5053 12.1081 23.92 10.2086 22.8959 8.58643C21.8842 10.1726 21.2335 12.1081 21.2335 14.1315C21.2335 16.1143 21.9372 18.0672 22.9139 19.6297ZM20.2568 22.5532C18.5703 20.2156 17.481 17.2273 17.481 14.132C17.481 11.0254 18.4936 8.1435 20.2152 5.77603C18.4615 4.4578 16.3259 3.7474 14.132 3.75257C8.41514 3.75257 3.7521 8.4156 3.7521 14.132C3.7521 19.8493 8.41514 24.5062 14.132 24.5062C16.3575 24.5062 18.5471 23.7543 20.2568 22.5532ZM57.9714 22.3105C55.8173 20.156 54.5922 17.3986 54.5922 14.1315C54.5922 11.0187 55.7582 8.24903 57.7225 6.1191C59.6636 8.23152 60.8528 11.0485 60.8528 14.1315C60.8528 16.2737 60.4392 18.079 59.4327 19.8124C60.9361 15.0547 60.4979 11.7049 58.6694 9.04781C58.995 9.51534 59.9007 12.1369 59.7346 14.131C59.7346 16.3386 59.0603 18.3923 57.9118 20.0963L57.9714 22.3105ZM58.2847 22.6715C60.504 20.4049 61.6345 17.5585 61.6345 14.132C61.6345 10.8001 60.3261 7.7531 58.1957 5.48642C59.8292 3.8529 63.0428 2.25533 66.4689 2.25533C73.0025 2.25533 78.3337 7.59268 78.3337 14.132C78.3337 16.2742 77.9258 18.0795 76.9198 19.8129C78.417 15.0552 77.9788 11.7054 76.1508 9.04828C76.4764 9.51581 77.3816 12.1374 77.2156 14.1315C77.2156 20.0552 72.3869 24.8848 66.4689 24.8848C63.9301 24.8426 62.7939 24.3992 61.7051 23.8669C64.8065 26.2812 71.6941 25.3461 73.4521 23.8309C71.5346 25.2099 69.126 26.0034 66.4689 26.0034C63.2028 26.0034 60.4506 24.8081 58.2847 22.6715ZM60.3739 22.4581C62.0661 23.7604 64.1847 24.5062 66.4694 24.5062C72.1796 24.5062 76.8436 19.8488 76.8436 14.132C76.8436 8.4156 72.1801 3.75257 66.4694 3.75257C63.8359 3.60446 60.9597 5.11353 60.54 5.82335C62.1021 8.0782 63.1086 11.1432 63.1086 14.132C63.1081 17.2206 62.1021 20.0855 60.3739 22.4581ZM57.7703 19.6297C58.7759 18.026 59.3617 16.1441 59.3617 14.1315C59.3617 12.1081 58.7702 10.2086 57.7523 8.58643C56.7344 10.1726 56.089 12.1081 56.089 14.1315C56.089 16.1143 56.7879 18.0672 57.7703 19.6297Z" fill="#101828" fill-opacity="0.3"/>
</svg>
