<svg width="60" height="60" viewBox="0 0 60 60" fill="none" xmlns="http://www.w3.org/2000/svg">
<g clip-path="url(#clip0_145_42816)">
<path d="M29.9999 60C38.0132 60 45.5466 56.8793 51.2131 51.2131C56.8793 45.5468 60 38.0132 60 29.9999C60 21.9868 56.8793 14.4532 51.2131 8.78691C45.5468 3.12058 38.0132 0 29.9999 0C13.4579 0 0 13.4579 0 29.9999C0 38.0132 3.12058 45.5468 8.78691 51.2131C14.4532 56.8793 21.9868 60 29.9999 60Z" fill="#101828" fill-opacity="0.3"/>
<path d="M1.03809 30C1.03809 22.2642 4.05071 14.9912 9.52096 9.52096C14.9912 4.05058 22.2641 1.03809 30 1.03809C37.736 1.03809 45.009 4.05058 50.4791 9.52096C55.9494 14.9912 58.962 22.2641 58.962 30C58.962 45.9698 45.9697 58.9621 30 58.9621C22.2641 58.9621 14.9912 55.9495 9.52096 50.4792C4.05071 45.0089 1.03809 37.736 1.03809 30Z" fill="white"/>
<path d="M30 2.23145C14.6642 2.23145 2.23169 14.6639 2.23169 29.9998C2.23169 45.3356 14.6642 57.7682 30 57.7682C45.3359 57.7682 57.7684 45.3356 57.7684 29.9998C57.7684 14.6639 45.3359 2.23145 30 2.23145Z" fill="#101828" fill-opacity="0.3"/>
<path d="M30 47.7377C20.2039 47.7377 12.2625 39.7963 12.2625 30.0002C12.2625 20.2042 20.2039 12.2627 30 12.2627C39.796 12.2627 47.7375 20.2042 47.7375 30.0002C47.7375 39.7963 39.7961 47.7377 30 47.7377Z" fill="white"/>
<path d="M13.4036 29.9997H29.9999V13.4033C20.8341 13.4033 13.4036 20.834 13.4036 29.9997ZM29.9999 29.9997V46.5962C39.1657 46.5962 46.5963 39.1656 46.5963 29.9997H29.9999Z" fill="#101828" fill-opacity="0.3"/>
<path d="M16.965 13.0767C16.3771 12.5052 15.4682 12.333 14.615 12.862C14.7779 12.4396 14.7114 12.0086 14.6249 11.7708C14.2573 11.1005 14.129 11.0166 13.826 10.7624C12.8453 9.9395 11.8132 10.642 11.0751 11.5218L7.50854 15.772L13.1151 20.4766L16.8762 15.9944C17.7356 14.9702 17.8684 13.9548 16.965 13.0767ZM30.929 11.057L32.8544 5.95365V11.057H34.3177V3.74805H32.1191L30.1193 8.98119H30.14L28.1402 3.74805H25.9417V11.057H27.405V5.95365L29.3305 11.057H30.929ZM50.6031 14.0978L47.848 17.9984L52.1191 15.9706L53.2501 17.3672L46.5274 20.6259L45.2002 18.9738L47.8444 15.1074L47.8288 15.088L43.4971 16.8706L42.1569 15.2289L46.7423 9.33072L47.8732 10.7273L45.0018 14.4835L49.3899 12.5996L50.6031 14.0978Z" fill="white"/>
<path d="M11.8543 12.5735C12.1025 12.2777 12.6634 12.2898 13.0241 12.5924C13.4207 12.9252 13.4217 13.397 13.1553 13.7143L11.0373 16.2384L9.71216 15.1264L11.8543 12.5735ZM15.6227 15.5511L13.3896 18.2123L11.9894 17.0373L14.2405 14.3545C14.4947 14.0515 15.0615 13.9633 15.4437 14.2842C15.8764 14.6471 15.9193 15.1977 15.6227 15.5511Z" fill="#101828" fill-opacity="0.3"/>
</g>
<defs>
<clipPath id="clip0_145_42816">
<rect width="60" height="60" fill="white"/>
</clipPath>
</defs>
</svg>
