<svg width="86" height="32" viewBox="0 0 86 32" fill="none" xmlns="http://www.w3.org/2000/svg">
<path d="M42.6667 2.61689C20.8782 2.61689 3.21778 8.64 3.21778 16.0071C3.21778 23.3742 20.8782 29.3938 42.6667 29.3938C64.4516 29.3938 82.112 23.3742 82.112 16.0071C82.112 8.63644 64.4516 2.61689 42.6667 2.61689ZM22.4071 24.8036C20.0747 24.8213 18.0231 23.3813 17.7849 20.8889C17.6495 19.5902 18.0243 18.2897 18.8302 17.2622C19.5236 16.3591 20.6969 15.6089 21.6889 15.424C22.0089 15.3636 22.4462 15.4027 22.6276 15.616C22.9084 15.9467 22.8267 16.3058 22.5458 16.448C21.7884 16.8356 20.8747 17.4969 20.4231 18.4036C20.2163 18.788 20.1182 19.2216 20.1395 19.6577C20.1608 20.0938 20.3007 20.5157 20.544 20.8782C21.4791 22.2898 24.0889 22.3289 26.5138 20.0782C27.1147 19.5236 27.6516 18.9973 28.1956 18.3716C29.2622 17.1484 29.6178 16.7004 31.04 14.7307C31.0578 14.7093 31.0613 14.6809 31.0542 14.6667C31.0436 14.6418 31.0222 14.6311 30.9831 14.6311C30.0338 14.656 29.2053 14.9404 28.4053 15.5378C28.1742 15.7084 27.84 15.6836 27.6942 15.4631C27.5307 15.2142 27.648 14.8836 27.9147 14.6987C29.2053 13.7991 30.6169 13.6391 32.0604 13.3938C32.0604 13.3938 32.16 13.4009 32.2418 13.2871C32.8356 12.5298 33.28 11.8471 33.9129 11.0791C34.5458 10.2969 35.3707 9.58578 35.9964 9.04533C36.8711 8.29155 37.4329 8.03911 38.0018 7.72978C38.1547 7.65156 37.984 7.55556 37.9378 7.55556C34.752 6.95822 31.4418 6.18311 28.2773 7.35645C26.0871 8.17422 25.1236 9.90933 25.5858 11.072C25.9164 11.8933 26.9973 12.032 28.0142 11.5342C28.8985 11.0957 29.6488 10.4277 30.1867 9.6C30.496 9.12356 31.1467 9.46489 30.7947 10.2933C29.8702 12.4658 28.1031 14.1938 25.9484 14.2684C24.1138 14.3253 22.9298 12.9778 22.9333 11.3138C22.9404 8.02845 26.5956 5.86667 30.4356 5.54667C35.0613 5.16267 39.4418 6.39644 44.0356 6.95111C47.552 7.37778 50.9262 7.38844 54.4604 6.57422C54.88 6.48533 55.1716 6.752 55.1467 7.17156C55.1111 7.78311 54.6382 8.36978 53.4756 9.00622C52.1493 9.73156 50.7627 9.952 49.3156 9.96622C45.8169 9.99467 42.5564 8.62933 39.1822 7.89689C39.1893 8.04267 39.2249 8.22045 39.1004 8.31289C37.2338 9.69245 35.5449 11.0933 34.4142 13.056C34.3751 13.1022 34.3964 13.1449 34.4604 13.1413C35.4453 13.088 36.3271 13.0631 37.2444 12.992C37.4044 12.9778 37.4116 12.9387 37.3973 12.8213C37.3471 12.4578 37.3855 12.0875 37.5094 11.742C37.6332 11.3966 37.8387 11.0862 38.1084 10.8373C38.72 10.2933 39.4844 10.2329 39.9929 10.624C40.5618 11.072 40.5156 11.8791 40.1991 12.4836C40.0582 12.749 39.8654 12.9834 39.632 13.1727C39.3987 13.3621 39.1296 13.5026 38.8409 13.5858C38.8409 13.5858 38.7342 13.6071 38.7484 13.7067C38.7698 13.8596 39.4596 14.2436 39.52 14.3467C39.5804 14.4427 39.5484 14.5956 39.4453 14.7093C39.4044 14.7593 39.3528 14.7996 39.2944 14.8272C39.236 14.8549 39.1722 14.8693 39.1076 14.8693C38.9902 14.8693 38.9191 14.8267 38.7662 14.7449C38.4003 14.5508 38.0745 14.289 37.8062 13.9733C37.7209 13.8631 37.6747 13.8596 37.4542 13.8702C36.4622 13.9307 34.9156 14.08 33.8667 14.2116C33.6142 14.24 33.5751 14.2898 33.5253 14.3787C31.8542 17.1342 30.0693 20.1031 28.1102 22.0942C26.0053 24.2276 24.2596 24.7893 22.4071 24.8036ZM67.7333 11.4133C67.4098 11.9751 61.1591 21.4898 60.7644 22.4711C60.64 22.784 60.6222 23.0222 60.7502 23.1964C61.0773 23.6373 61.8062 23.3778 62.2613 23.0613C63.616 22.1298 64.5547 20.9991 65.5929 20.0107C65.6533 19.9644 65.7564 19.9467 65.824 20.0107C65.9769 20.1529 66.2009 20.3342 66.3573 20.4978C66.3712 20.5105 66.3825 20.5259 66.3904 20.5431C66.3983 20.5602 66.4027 20.5788 66.4034 20.5976C66.404 20.6165 66.4009 20.6353 66.3942 20.6529C66.3876 20.6706 66.3774 20.6867 66.3644 20.7004C65.4146 21.8943 64.3367 22.9805 63.1502 23.9396C61.4791 25.2338 59.8116 25.5644 58.9831 24.736C58.691 24.4312 58.5148 24.0336 58.4853 23.6124C58.4782 23.4098 58.3751 23.3991 58.2791 23.4916C57.2907 24.4693 55.5769 25.5502 54.0196 24.7787C52.7182 24.1387 52.416 22.5813 52.6578 21.2729C52.6613 21.2444 52.6364 21.0596 52.4764 21.1662C52.1482 21.4049 51.7894 21.5986 51.4098 21.7422C51.0016 21.9286 50.5571 22.0221 50.1084 22.016C49.7858 22.0197 49.4678 21.9385 49.1864 21.7806C48.905 21.6228 48.6699 21.3937 48.5049 21.1164C48.295 20.7382 48.1792 20.3151 48.1671 19.8827C48.1636 19.8436 48.1067 19.7689 48.0498 19.8649C46.9831 21.4898 45.9911 23.0613 44.9387 24.7111C44.8818 24.7893 44.832 24.8391 44.7253 24.8427L42.6382 24.8462C42.5102 24.8462 42.4498 24.7467 42.5173 24.6222C42.8871 23.9111 44.9138 20.96 46.2862 18.4498C46.6667 17.76 46.5884 17.4044 46.3538 17.2516C46.0587 17.0596 45.472 17.3476 44.9778 17.7244C43.6302 18.7449 42.4996 20.3378 41.9236 21.0489C41.5858 21.4649 41.2658 22.0836 40.384 23.04C38.9938 24.5511 37.1484 25.4187 35.3778 24.8178C34.91 24.6593 34.4884 24.3884 34.1499 24.0288C33.8114 23.6692 33.5664 23.232 33.4364 22.7556C33.3831 22.5707 33.28 22.5209 33.1769 22.6418C32.8924 22.9973 32.3058 23.5271 31.8151 23.8578C31.7618 23.8969 31.6302 23.9751 31.5164 23.9182C31.3024 23.7103 31.1203 23.4719 30.976 23.2107C30.9546 23.1633 30.9485 23.1103 30.9587 23.0593C30.9689 23.0083 30.9949 22.9617 31.0329 22.9262C31.7333 22.3111 32.1173 21.9627 32.4231 21.5751C32.6507 21.2907 32.8249 20.9707 33.0276 20.4551C33.4542 19.3813 34.4249 17.376 36.3627 16.3378C37.0785 15.9324 37.8655 15.6681 38.6809 15.5591C39.0364 15.5236 39.3316 15.5662 39.4382 15.8436C39.4773 15.9609 39.5769 16.2169 39.6373 16.4053C39.6764 16.5191 39.648 16.608 39.5129 16.6578C38.3751 17.0916 37.2267 17.7636 36.4373 18.8267C35.5378 20.0284 35.296 21.4791 35.8969 22.3111C36.3342 22.9156 37.0418 23.0222 37.7244 22.8053C38.7556 22.4782 39.6373 21.5147 40.0924 20.448C40.5831 19.2782 40.6613 17.8987 40.2987 16.6827C40.2418 16.4729 40.2951 16.3129 40.4302 16.1991C40.704 15.9751 41.0844 15.8009 41.1947 15.744C41.3032 15.6859 41.4294 15.6701 41.549 15.6997C41.6685 15.7292 41.7728 15.802 41.8418 15.904C42.2187 16.4622 42.4213 17.248 42.4462 18.0622C42.4676 18.2364 42.5387 18.24 42.624 18.1511C43.2996 17.4329 43.9253 16.6649 44.6436 16.0889C45.3013 15.5662 46.144 15.1396 46.9298 15.1573C47.9467 15.1787 48.4516 15.8684 48.4196 17.0987C48.416 17.2551 48.5262 17.2409 48.6009 17.1378C48.8365 16.7838 49.1242 16.4673 49.4542 16.1991C50.1582 15.6196 50.8764 15.36 51.6267 15.4098C52.5511 15.4809 53.2907 16.3236 53.1378 17.2836C53.1009 17.5872 52.9907 17.8773 52.8166 18.1288C52.6425 18.3803 52.4099 18.5856 52.1387 18.7271C51.9107 18.8486 51.6514 18.8986 51.3946 18.8707C51.1378 18.8428 50.8953 18.7382 50.6987 18.5707C50.5463 18.4266 50.4345 18.2449 50.3746 18.044C50.3147 17.843 50.3087 17.6298 50.3573 17.4258C50.3751 17.3369 50.2613 17.2551 50.1653 17.3547C49.2622 18.2933 49.1947 19.5093 49.7849 20.0569C50.4356 20.6613 51.4133 20.256 52.1244 19.7902C53.4258 18.9404 54.4356 17.7884 55.6053 16.8996C56.3804 16.3093 57.2658 15.7831 58.2578 15.6516C58.8027 15.5682 59.36 15.6321 59.872 15.8364C60.5831 16.1244 61.0311 16.7253 61.088 17.2444C61.1022 17.3973 61.216 17.4151 61.312 17.28C61.8738 16.4053 64.8853 11.8862 65.1342 11.4133C65.2053 11.2676 65.2907 11.2462 65.4507 11.2462H67.6053C67.7298 11.2462 67.7867 11.3173 67.7333 11.4133ZM59.4844 19.2498C59.4624 19.294 59.4586 19.345 59.4738 19.392C59.4844 19.4631 59.5804 19.5342 59.6729 19.5698C59.7084 19.5804 59.7262 19.6053 59.6871 19.6836C59.4204 20.2524 59.1787 20.5796 58.8444 21.0738C58.5491 21.5105 58.1895 21.9001 57.7778 22.2293C57.1449 22.752 56.2702 23.3209 55.5449 22.9404C55.2249 22.7733 55.0827 22.3218 55.0933 21.9591C55.1076 20.9351 55.5627 19.8827 56.4053 18.848C57.4293 17.5858 58.5636 16.9316 59.3067 17.2907C60.0747 17.6569 59.8329 18.5529 59.4844 19.2498ZM38.3324 12.5618C38.3057 12.3346 38.3344 12.1043 38.4162 11.8907C38.4979 11.6771 38.6302 11.4864 38.8018 11.3351C39.0044 11.1573 39.2747 11.1147 39.4418 11.2569C39.6267 11.4169 39.5378 11.8151 39.3493 12.0889C39.1447 12.3972 38.8352 12.6208 38.4782 12.7182C38.4142 12.7324 38.3573 12.704 38.3324 12.5618ZM42.6667 0C18.9867 0 0 7.10044 0 16C0 24.8462 19.1396 32 42.6667 32C66.1938 32 85.3333 24.8178 85.3333 16C85.3333 7.18222 66.1938 0 42.6667 0ZM42.6667 30.6062C20.0853 30.6062 1.77778 24.0711 1.77778 16.0071C1.77778 7.93955 20.0889 1.40444 42.6667 1.40444C65.2444 1.40444 83.5484 7.93955 83.5484 16.0071C83.5484 24.0711 65.2444 30.6062 42.6667 30.6062Z" fill="#101828" fill-opacity="0.3"/>
</svg>
