<svg width="62" height="50" viewBox="0 0 62 50" fill="none" xmlns="http://www.w3.org/2000/svg">
<path d="M56.9618 9.07173C56.7508 8.81857 56.4555 8.52321 56.2445 8.27004C49.9154 1.47679 39.5779 0 30.8859 0C22.1096 0 11.4767 1.47679 5.23205 8.69198C5.14766 8.81856 5.02108 8.94515 4.93669 9.07173C1.89873 12.7426 0 17.9325 0 24.9367C0 46.5401 17.5527 50 30.8859 50C44.2614 50 61.8563 46.5401 61.8563 24.9367C61.8563 17.9325 59.9997 12.7004 56.9618 9.07173ZM10.7594 12.4895C14.9366 6.07595 22.8269 4.51477 30.8859 4.51477C38.945 4.51477 46.7087 5.99156 50.9281 12.2785C51.0124 12.4051 51.0968 12.5738 51.1812 12.7426C43.9661 17.0042 35.7804 17.173 30.8859 27.7215C25.5273 17.4684 17.4261 17.384 10.3375 13.2911C10.4641 13.038 10.6329 12.7848 10.7594 12.4895ZM30.8859 45.4852C18.9029 45.5696 7.72149 42.1097 7.72149 24.9367C7.72149 23.6709 7.72149 22.3629 7.93246 21.2658C7.97465 21.0127 8.05904 20.7595 8.10123 20.5063C12.1097 21.9409 16.0759 23.2911 20.1265 24.6413C24.8522 26.5823 28.0168 29.3671 30.8859 35.6118C33.7551 29.3671 36.8353 26.2025 41.6032 24.2616C45.696 22.827 49.7044 21.3502 53.7972 19.9156C53.8394 20 53.8394 20.1266 53.8816 20.211C54.0926 21.6034 54.177 23.2489 54.177 24.9367C54.2192 42.1097 42.869 45.6118 30.8859 45.4852Z" fill="#101828" fill-opacity="0.3"/>
</svg>
