<svg width="60" height="60" viewBox="0 0 60 60" fill="none" xmlns="http://www.w3.org/2000/svg">
<path d="M30 0C46.5575 0 60 13.4425 60 30C60 46.5575 46.5575 60 30 60C13.4425 60 0 46.5575 0 30C0 13.4425 13.4425 0 30 0ZM8.1125 43.8475C10.4477 47.5398 13.6792 50.5813 17.5062 52.6886C21.3332 54.796 25.6312 55.9007 30 55.9C39.2025 55.9 47.2925 51.09 51.8875 43.8475L30 35.5075L8.1125 43.8475ZM34.77 27.245L52.9375 42.0325C54.8892 38.3224 55.9061 34.1921 55.9 30C55.9 16.0575 44.8575 4.6725 31.05 4.12L34.77 27.245ZM28.95 4.12C15.1425 4.6725 4.1 16.0575 4.1 30C4.1 34.3425 5.17 38.435 7.0625 42.0325L25.23 27.245L28.95 4.12Z" fill="#101828" fill-opacity="0.3"/>
</svg>
