<svg width="60" height="60" viewBox="0 0 60 60" fill="none" xmlns="http://www.w3.org/2000/svg">
<path d="M29.8966 0C13.3299 0.0574998 -0.0570669 13.5367 0.000182941 30.1039C0.0571828 46.6711 13.5364 60.0571 30.1036 59.9998C46.6706 59.9428 60.0568 46.4641 59.9995 29.8969C59.9425 13.33 46.4638 -0.0572498 29.8966 0ZM30.0004 5.33573C36.5888 5.33573 42.7823 7.90173 47.4406 12.5597C52.0998 17.2182 54.665 23.4117 54.665 29.9999C54.665 36.5874 52.0995 42.7811 47.4406 47.4396C42.7823 52.0976 36.5888 54.6631 30.0006 54.6631C23.4119 54.6631 17.2181 52.0976 12.5596 47.4396C7.90066 42.7811 5.33517 36.5874 5.33517 29.9999C5.33517 23.4117 7.90066 17.2182 12.5596 12.5597C17.2179 7.90173 23.4121 5.33573 30.0004 5.33573ZM30.2859 8.31972C28.1497 8.31776 26.0247 8.62829 23.9784 9.24147C23.7809 9.30122 23.6321 9.38222 23.5279 9.48397C23.4241 9.58522 23.3674 9.70947 23.3586 9.83547C23.3411 10.0877 23.4954 10.3287 23.7161 10.5187C25.6591 12.181 28.2681 14.6702 30.1099 17.7567C29.0774 17.7777 28.2624 17.2064 27.5606 16.5337C25.0716 14.165 22.4811 12.477 20.4244 11.3217C20.0524 11.1137 19.6479 11.0172 19.2569 11.2417C16.9886 12.5607 15.4506 13.8095 13.6496 15.898C13.4809 16.094 13.4376 16.3009 13.4996 16.4709C13.5619 16.6409 13.7081 16.7622 13.8714 16.8489C15.7984 17.8707 18.8084 19.8077 21.5864 22.3129C21.3424 22.4704 21.0524 22.5409 20.6671 22.4864C20.2229 22.4234 19.6736 22.2159 19.0201 21.8734C16.4746 20.5359 14.0279 19.7669 12.1627 19.2867C11.7289 19.1754 11.2464 19.2994 11.0142 19.7024C9.81516 21.7857 8.98966 24.2724 8.59916 26.7949C8.51666 27.3324 8.88791 27.8152 9.42066 27.9082C11.5834 28.2867 14.5859 28.9844 17.2011 30.6889C19.8161 32.3934 22.0466 35.0976 22.6846 39.5214C22.7346 39.8759 22.5989 40.2026 22.3509 40.3921C22.1024 40.5821 21.7401 40.6429 21.3019 40.4371C19.9984 39.8264 18.6961 39.2171 17.3941 38.6061C17.2506 38.5399 17.0826 38.4786 16.9074 38.4786H10.7652C10.2949 38.4786 9.94116 38.7101 9.79516 39.0404C9.64966 39.3706 9.71466 39.7891 10.0207 40.1396C11.4937 41.8359 12.8444 43.6661 13.9994 45.6051C14.1136 45.7976 14.2869 45.8951 14.5106 45.8951H17.1919C17.3857 45.8968 17.5761 45.8448 17.7421 45.7449C18.5846 45.2506 19.4271 44.7579 20.2719 44.2641C20.4014 44.1866 20.5304 44.1871 20.7139 44.1871H40.9251C41.0381 44.1871 41.1356 44.2236 41.2028 44.2826C41.2703 44.3414 41.3108 44.4206 41.3108 44.5279V45.5224C41.3108 45.9474 41.6941 46.2729 42.1133 46.2079C44.6188 45.8067 46.9469 44.6636 48.7961 42.9261C48.8751 42.8521 48.9382 42.7627 48.9813 42.6634C49.0244 42.564 49.0466 42.4569 49.0466 42.3486C49.0466 42.2403 49.0244 42.1332 48.9813 42.0339C48.9382 41.9345 48.8751 41.8451 48.7961 41.7711C46.9472 40.033 44.6193 38.8895 42.1136 38.4886C41.6941 38.4236 41.3108 38.7501 41.3108 39.1749V40.0841C41.3108 40.1924 41.2661 40.3174 41.1953 40.4086C41.1243 40.5001 41.0343 40.5551 40.9386 40.5551C40.7401 40.5551 40.5446 40.5601 40.3506 40.5551C40.0446 40.5501 39.8816 40.3751 39.7898 40.1226C39.6981 39.8704 39.7006 39.5449 39.7643 39.3151C41.2548 33.9701 41.6208 30.7212 41.6033 28.3519C41.5848 25.8444 41.5208 23.3294 40.3866 20.0094C39.2991 16.8312 38.2878 13.6835 33.0203 8.91372C32.6493 8.57997 32.2583 8.41047 31.7583 8.37422C31.2684 8.33791 30.7772 8.31973 30.2859 8.31972ZM34.1053 32.5809C35.6676 32.5809 36.9358 33.8491 36.9358 35.4114C36.9358 36.9704 35.6676 38.2394 34.1053 38.2394C32.5438 38.2394 31.2784 36.9704 31.2784 35.4114C31.2784 33.8494 32.5441 32.5809 34.1053 32.5809Z" fill="#101828" fill-opacity="0.3"/>
</svg>
