<svg width="60" height="60" viewBox="0 0 60 60" fill="none" xmlns="http://www.w3.org/2000/svg">
<path d="M30 0C13.4757 0 0 13.4757 0 30C0 46.5243 13.4757 60 30 60C46.5243 60 60 46.5243 60 30C59.9885 13.4757 46.5127 0 30 0ZM30 56.5358C15.3811 56.5358 3.4642 44.6189 3.4642 30C3.4642 15.3811 15.3811 3.4642 30 3.4642C44.6189 3.4642 56.5358 15.3811 56.5358 30C56.5358 44.6189 44.6074 56.5358 30 56.5358Z" fill="#101828" fill-opacity="0.3"/>
<path d="M21.4088 50.2772C13.522 46.9169 7.97925 39.0878 7.97925 30.0001C7.97925 27.6906 8.33722 25.462 9.00696 23.3604L21.4088 50.2772Z" fill="#101828" fill-opacity="0.3"/>
<path d="M36.1085 51.1545C34.1686 51.7203 32.1131 52.0206 29.9884 52.0206C27.8637 52.0206 25.8198 51.7203 23.8799 51.1545L29.9884 36.8936L36.1085 51.1545Z" fill="#101828" fill-opacity="0.3"/>
<path d="M50.9932 23.3721C51.6629 25.4621 52.0209 27.6908 52.0209 30.0002C52.0209 39.088 46.4666 46.9171 38.5913 50.2658L50.9932 23.3721Z" fill="#101828" fill-opacity="0.3"/>
<path d="M41.0971 10.9932C43.7876 12.5752 46.1086 14.6999 47.9216 17.2287L36.9516 40.5428L33.2564 31.6398H26.7437L23.0486 40.5428L12.0786 17.2287C13.8915 14.6999 16.2126 12.5636 18.9031 10.9932L26.5936 28.9493H33.4066L41.0971 10.9932Z" fill="#101828" fill-opacity="0.3"/>
<path d="M30 7.97949C32.1478 7.97949 34.2379 8.29127 36.2009 8.86864L30 23.7994L23.7991 8.86864C25.7621 8.29127 27.8406 7.97949 30 7.97949Z" fill="#101828" fill-opacity="0.3"/>
</svg>
