<?xml version="1.0" standalone="no"?>
<!DOCTYPE svg PUBLIC "-//W3C//DTD SVG 20010904//EN"
 "http://www.w3.org/TR/2001/REC-SVG-20010904/DTD/svg10.dtd">
<svg version="1.0" xmlns="http://www.w3.org/2000/svg"
 width="385.000000pt" height="284.000000pt" viewBox="0 0 385.000000 284.000000"
 preserveAspectRatio="xMidYMid meet">
<metadata>
Created by potrace 1.16, written by Peter Selinger 2001-2019
</metadata>
<g transform="translate(0.000000,284.000000) scale(0.100000,-0.100000)"
fill="#000000" stroke="none">
<path d="M0 1420 l0 -1420 1925 0 1925 0 0 1420 0 1420 -1925 0 -1925 0 0
-1420z m3272 478 c57 -17 120 -77 184 -176 58 -89 76 -124 88 -177 7 -26 3
-24 -34 23 -91 114 -153 43 -231 -264 -21 -86 -47 -175 -58 -198 -17 -40 -22
-43 -66 -49 -26 -4 -75 -7 -109 -7 -34 0 -99 -9 -146 -20 -47 -12 -155 -38
-240 -59 l-155 -38 -7 141 c-11 205 -23 287 -56 358 -81 178 -225 154 -327
-53 -15 -30 -36 -59 -48 -65 -23 -10 -52 -79 -62 -147 -6 -38 -4 -47 8 -47 12
0 11 -17 -9 -112 -28 -138 -30 -144 -57 -152 -12 -4 -135 -10 -273 -13 -216
-5 -257 -4 -295 10 -33 12 -113 19 -329 27 -161 6 -324 17 -375 26 -136 23
-201 27 -235 15 -25 -8 -38 -7 -61 5 -17 8 -33 22 -36 30 -3 7 -10 14 -15 14
-6 0 -8 -7 -5 -15 4 -8 2 -17 -2 -20 -14 -8 -23 63 -21 155 1 62 5 87 16 93
10 6 14 27 14 75 0 47 -3 63 -10 52 -8 -12 -10 -9 -10 13 0 15 5 27 11 27 6 0
8 7 5 16 -4 10 1 25 10 35 9 10 18 32 20 49 9 74 163 247 283 319 104 61 150
71 395 82 197 9 221 8 237 -7 16 -15 31 -15 191 1 192 19 394 17 893 -11 478
-27 455 -24 445 -44 -6 -11 -3 -26 10 -48 26 -42 53 -42 65 1 10 31 13 32 71
38 33 3 72 13 85 22 13 10 33 17 44 17 23 0 102 47 124 73 16 20 22 21 73 5z"/>
<path d="M1686 1524 c-38 -8 -120 -31 -182 -50 -63 -19 -116 -34 -119 -34 -3
0 -5 -6 -5 -14 0 -10 19 -15 68 -19 37 -3 110 -10 162 -17 113 -14 206 -8 229
15 15 15 15 17 -1 26 -10 6 -18 19 -18 29 0 16 6 18 34 16 18 -2 38 -6 44 -10
13 -8 65 45 54 56 -17 17 -195 18 -266 2z"/>
<path d="M470 1298 c-64 -18 -64 -22 -2 -148 66 -134 99 -164 203 -185 111
-23 295 -38 422 -33 192 6 226 31 297 215 11 29 17 59 14 67 -12 30 -213 68
-456 85 -179 13 -430 13 -478 -1z"/>
</g>
</svg>
